<svg xmlns="http://www.w3.org/2000/svg" xmlns:xlink="http://www.w3.org/1999/xlink" width="1920" height="1080" viewBox="0 0 1920 1080">
  <defs>
    <linearGradient id="linear-gradient" x1="0.5" x2="0.5" y2="1" gradientUnits="objectBoundingBox">
      <stop offset="0" stop-color="#f4fdff" stop-opacity="0.455"/>
      <stop offset="1" stop-color="#adecff" stop-opacity="0.424"/>
    </linearGradient>
    <clipPath id="clip-hkust-firebird">
      <rect width="1920" height="1080"/>
    </clipPath>
  </defs>
  <g id="hkust-firebird" clip-path="url(#clip-hkust-firebird)">
    <rect width="1920" height="1080" fill="url(#linear-gradient)"/>
    <g id="Firebird" transform="translate(43 34)" opacity="0.298" style="isolation: isolate">
      <ellipse id="Ellipse_1" data-name="Ellipse 1" cx="172.5" cy="15.5" rx="172.5" ry="15.5" transform="translate(917 914)" fill="#585858"/>
      <g id="Back_Wing" data-name="Back Wing">
        <path id="Path_15" data-name="Path 15" d="M1148.089,681.875S1096.169,755.054,1076.4,784.3s-19.591,66.96-19.591,66.96l37.517,8.572L1120.8,784.3Z" transform="translate(-19 -14)" fill="#ff1d23" stroke="#94080c" stroke-linecap="round" stroke-linejoin="round" stroke-width="3"/>
        <path id="Path_3" data-name="Path 3" d="M1098.119,909.873c17.626,7.52,0,17.23,0,17.23a783.275,783.275,0,0,0,36.516-118.618c14.081-64.531,8.593-131.844,8.593-131.844s-27.621,45.385-49.642,91.8S1080.493,902.352,1098.119,909.873Z" transform="translate(-14 -9)" fill="#ff6065" stroke="#94080c" stroke-linecap="round" stroke-linejoin="round" stroke-width="3"/>
      </g>
      <g id="Main">
        <path id="Path_11" data-name="Path 11" d="M968.118,339.236s40.21,77.182,38.941,142.5c-1.2,42.933-10.745,91.57-30.472,125.834S940.828,679.178,937.3,727.106c-4.3,58.406,22.543,134.659,67.99,168.361,52.732,39.623,128.461,40.217,131.807,35.957-9.258-30.717-101.231-124.383-122.83-218.451-1.006-4.381-1.882-8.911-2.578-13.435-13.341-86.8,33.968-171.729,32.545-196.177C1039.806,427.321,968.118,339.236,968.118,339.236Z" fill="#d40d12" stroke="#94080c" stroke-linecap="round" stroke-linejoin="round" stroke-width="3"/>
        <path id="Path_12" data-name="Path 12" d="M947.607,723.057s-10.615-2.526-16.634-6.312-7.158-6.426-7.158-6.426a359,359,0,0,1,11.95-51.712,221.487,221.487,0,0,1,20.187-44.614,4.314,4.314,0,0,0,1.663,2.191,6.246,6.246,0,0,0,2.856.728Z" transform="translate(16 5)" fill="#ff1d23"/>
        <path id="Path_10" data-name="Path 10" d="M1280.847,754.53s-30.9,25.026-68.616,43.526c-12.606,6.77-59.868,23.655-94.548,16.285s-67.638-32.265-67.638-32.265-22.416-16.728,0,10.241,75.049,39.877,75.049,39.877,28.839,9.589,60.286,4.308a90.429,90.429,0,0,0,24.667-7.79C1248.672,809.826,1280.847,754.53,1280.847,754.53Z" fill="#ff6065" stroke="#94080c" stroke-linecap="round" stroke-linejoin="round" stroke-width="3"/>
        <path id="Path_1" data-name="Path 1" d="M968.249,339.286s34.648,40.624,44.507,89.637,3.49,121.3-18.635,161.709-38.608,80.112-44.888,120.736,4.366,88.014,14.574,110.612,27.984,51.206,49.59,69.952,50.686,31.185,85.762,37.616,57.937,5.36,89.972-7.817,61.683-42.561,74.412-63.768c4.951-8.249,11.779-27.282,14.889-45.119,4.746-27.223,2.529-58.784,2.529-58.784s-17.759,40.05-68.32,67.031-79.522,11.987-90.3,10.373-41.313-14.348-47.731-18.848-37.128-36.586-38.426-68.707-2.209-48.929,5.979-95.4,23.311-70.207,22.2-125.536-13.755-80.5-30.609-115.409S968.249,339.286,968.249,339.286Z" fill="#ff1d23" stroke="#94080c" stroke-linecap="round" stroke-linejoin="round" stroke-width="3"/>
        <line id="Line_1" data-name="Line 1" x2="239" y2="97" transform="translate(1041.5 657.5)" fill="none" stroke="#c3c3c3" stroke-linecap="round" stroke-width="3"/>
        <path id="Path_6" data-name="Path 6" d="M994.341,362.042s29.589,44.134,46.14,95.371,22.682,73.193,22.682,73.193-.834-44.372-6.473-63.109c-4.873-16.188-16.161-47.812-26.537-63.535C1015.474,378.5,994.341,362.042,994.341,362.042Z" fill="#ff6065"/>
        <path id="Path_5" data-name="Path 5" d="M949.37,722.864s12.818,25.893,37.231,62.452,64.91,54.638,64.91,54.638l66.722,25.443s48.924,10.8,89.466-9.612,71.775-66.842,71.775-66.842,1.138,14.87-6.87,42.626-22.01,43.76-35.3,56.935-40,28.268-40,28.268-29.868,16.237-67.01,15.356-82.153-19.4-82.153-19.4-28.383-8.516-58.019-47.33-33.778-72.24-38.138-89.77c-2.062-8.291-3.3-21.434-3.356-32.926C948.564,730.558,949.37,722.864,949.37,722.864Z" fill="#d40d12"/>
        <path id="Path_7" data-name="Path 7" d="M1222.981,816.837s26.957-13.729,37.169-20.824S1280,777.764,1280,777.764V757.933a220.674,220.674,0,0,1-17.192,25.094C1253.039,795.169,1222.981,816.837,1222.981,816.837Z" fill="#ff6065"/>
        <path id="Path_16" data-name="Path 16" d="M973.286,860.013a66.283,66.283,0,0,0,8.356,4.429,30.315,30.315,0,0,0,7.195,2l23.212,24.99,45.056,28.663s-25.9-6.31-46.853-21.33S973.286,860.013,973.286,860.013Z" fill="#94080c"/>
        <path id="Path_18" data-name="Path 18" d="M1128.39,899.473s18.977,10.2,45.276,8.346,59.923-15.746,59.923-15.746S1202,920.6,1168.583,929.593c-16.208,4.362-63.1,4.678-75.56,0C1080.263,924.8,1128.39,899.473,1128.39,899.473Z" fill="#94080c"/>
      </g>
      <g id="Front_Wing" data-name="Front Wing">
        <path id="Path_13" data-name="Path 13" d="M1162.514,667.589s-30.475,73.44-54.758,109.666-33.144,35.072-33.144,35.072l-54.14,85.412s47.533-30.73,82.2-87.062S1162.514,667.589,1162.514,667.589Z" fill="#ff1d23" stroke="#94080c" stroke-linecap="round" stroke-linejoin="round" stroke-width="3"/>
        <path id="Path_2" data-name="Path 2" d="M1021.123,897.8a152.765,152.765,0,0,0,34.245,19.926c19.187,7.782,43.6,11.543,43.6,11.543s47.505-32.676,63.507-97.994,0-163.746,0-163.746-26.351,89.4-61.814,146.846S1021.123,897.8,1021.123,897.8Z" fill="#ff1d23" stroke="#94080c" stroke-linecap="round" stroke-linejoin="round" stroke-width="3"/>
        <path id="Path_4" data-name="Path 4" d="M1106.326,807.674s8.123,14.041,23.947,18.939a91.219,91.219,0,0,0,30.967,3.611,192.233,192.233,0,0,1-8.826,27.048,163.008,163.008,0,0,1-17.715,31.97c-14.206,19.329-35.875,38.654-35.875,38.654s-22.554-3.247-41.657-10.8a154.822,154.822,0,0,1-34.559-19.763s26.071-19.554,43.306-36.175S1106.326,807.674,1106.326,807.674Z" fill="#d40d12"/>
        <path id="Path_8" data-name="Path 8" d="M1134.295,747.18s5.32-12.2,12.314-31.521,15.664-45.759,15.664-45.759,2.995,26.259,4.423,47.307,1.288,36.885,1.288,36.885-9.364,1.728-17.786,0A49.489,49.489,0,0,1,1134.295,747.18Z" transform="translate(0 3)" fill="#ff6065"/>
        <path id="Path_14" data-name="Path 14" d="M1024.959,892.965l50.56-79.33a30.864,30.864,0,0,0,12.337-.293c7.129-1.519,15.728-6.94,15.728-6.94s-14.211,25.18-33.408,45.946S1024.959,892.965,1024.959,892.965Z" fill="#d40d12"/>
        <path id="Path_17" data-name="Path 17" d="M1133.691,892.816a213.978,213.978,0,0,1-16.561,20.32,133.678,133.678,0,0,1-18.533,15.876s-29.76-2.834-49.131-10.863-28.351-21.252-28.351-21.252,26.956,6.01,55.1,4.99S1133.691,892.816,1133.691,892.816Z" fill="#94080c"/>
      </g>
    </g>
  </g>
</svg>
