<?xml version="1.0" standalone="no"?>
<!DOCTYPE svg PUBLIC "-//W3C//DTD SVG 20010904//EN"
 "http://www.w3.org/TR/2001/REC-SVG-20010904/DTD/svg10.dtd">
<svg version="1.0" xmlns="http://www.w3.org/2000/svg"
 width="1046.000000pt" height="1777.000000pt" viewBox="0 0 1046.000000 1777.000000"
 preserveAspectRatio="xMidYMid meet">

<g transform="translate(0.000000,1777.000000) scale(0.100000,-0.100000)"
fill="#f6d198" stroke="none">
<path d="M6206 17536 c4 -10 -9 -17 -46 -25 -28 -6 -60 -11 -72 -11 -22 0 -98
-39 -98 -51 0 -4 -21 -10 -47 -14 -27 -4 -63 -18 -81 -32 -23 -18 -40 -23 -58
-19 -16 4 -24 2 -24 -7 0 -8 -24 -21 -57 -31 -32 -10 -85 -25 -118 -35 -33
-10 -82 -32 -110 -50 -27 -17 -56 -31 -65 -31 -18 0 -110 -95 -145 -150 -13
-19 -35 -46 -50 -60 -15 -14 -34 -38 -42 -53 -15 -30 -60 -91 -113 -154 -43
-52 -60 -104 -60 -193 0 -42 -4 -80 -9 -85 -10 -11 1 -167 23 -320 8 -55 17
-137 20 -182 4 -48 14 -99 26 -125 11 -24 20 -59 20 -79 0 -20 7 -42 15 -49
10 -8 15 -31 15 -70 0 -54 3 -60 35 -89 44 -38 47 -38 39 -3 -8 31 -6 30 35
-22 44 -56 41 -64 -21 -55 -29 3 -60 3 -68 -2 -15 -8 -14 -9 22 -13 6 0 13 -6
15 -12 2 -7 -18 -13 -54 -16 -32 -3 -59 -4 -61 -3 -1 1 2 14 7 29 8 19 18 26
38 26 l28 0 -21 18 c-20 16 -39 50 -36 64 1 4 -11 2 -26 -4 -15 -6 -54 -17
-87 -23 -40 -9 -50 -13 -30 -14 45 -2 101 -19 115 -36 15 -18 -3 -45 -30 -45
-10 0 -21 -7 -24 -16 -8 -22 -8 -26 4 -19 5 3 19 1 31 -5 16 -9 20 -20 18 -48
-1 -20 1 -49 5 -64 3 -16 8 -39 11 -53 5 -25 24 -36 22 -12 -3 23 14 137 20
137 3 0 16 -12 29 -27 18 -22 32 -27 76 -29 52 -2 64 -10 93 -58 11 -20 45
-12 45 9 0 7 6 15 12 17 9 3 8 9 -4 22 -10 9 -15 23 -12 31 7 18 41 20 47 3 3
-9 9 -8 19 5 8 11 28 19 48 20 27 2 35 -2 38 -18 8 -40 22 -39 22 2 0 23 3 48
6 56 4 11 -2 16 -23 19 -26 3 -28 6 -25 41 2 21 -2 37 -8 37 -6 0 -25 16 -42
36 -36 41 -76 63 -173 93 -69 22 -104 50 -105 82 0 9 -7 20 -16 23 -11 4 -13
10 -7 19 5 6 11 32 12 57 2 25 12 74 24 110 19 55 27 67 55 79 39 17 42 31 6
31 -19 0 -24 4 -20 18 2 9 8 32 11 51 16 75 115 249 155 271 29 16 26 -6 -8
-61 -15 -24 -38 -69 -51 -99 -12 -30 -29 -69 -38 -85 -8 -17 -13 -40 -11 -50
4 -18 6 -17 16 6 11 27 73 90 96 99 18 6 204 159 220 180 14 19 96 59 118 58
24 -2 12 -17 -26 -34 -38 -16 -15 -18 54 -3 42 9 49 13 39 25 -9 12 -5 14 29
14 22 0 71 12 108 27 56 21 89 27 172 29 87 3 102 1 102 -13 0 -13 9 -14 57
-8 31 4 94 6 140 6 l83 -1 36 -40 c20 -22 42 -40 49 -40 7 0 18 -7 25 -15 7
-9 19 -14 26 -11 8 3 18 -2 23 -11 7 -14 12 -15 23 -5 8 6 18 8 23 4 4 -4 4 3
1 16 -9 28 7 29 33 1 16 -17 20 -39 23 -117 3 -91 0 -106 -25 -114 -10 -4 3
-68 14 -68 5 0 9 9 9 20 0 28 24 25 44 -5 13 -19 14 -36 8 -82 -5 -33 -5 -88
0 -123 7 -60 9 -109 5 -169 -2 -18 4 -26 22 -31 21 -5 22 -7 8 -18 -11 -10
-14 -23 -10 -50 3 -20 9 -39 13 -42 4 -3 11 -15 14 -28 6 -16 13 -21 25 -17
14 4 22 -3 31 -26 16 -38 5 -62 -31 -67 -13 -2 -28 -7 -34 -12 -16 -13 -61
-19 -225 -30 -248 -17 -258 -18 -269 -24 -5 -4 -21 -1 -35 5 -20 9 -35 9 -66
0 -33 -10 -45 -9 -69 4 -38 19 -65 19 -81 0 -9 -11 -17 -12 -31 -4 -11 5 -59
14 -107 20 -63 7 -90 14 -97 26 -5 9 -21 27 -34 40 -13 13 -22 25 -20 27 5 5
69 32 94 40 16 6 17 9 5 16 -24 15 -7 19 35 10 22 -5 59 -10 81 -10 23 0 52
-8 65 -17 48 -36 68 -43 75 -31 4 7 1 14 -6 16 -8 3 -35 25 -61 49 -25 23 -52
43 -60 43 -8 0 -24 7 -36 15 -13 9 -32 13 -46 10 -17 -5 -26 -2 -30 9 -7 18
-34 21 -39 5 -3 -9 -9 -9 -24 -1 -11 6 -26 7 -35 2 -8 -5 -54 -13 -103 -18
-73 -8 -93 -14 -113 -35 -21 -20 -24 -30 -18 -56 4 -18 16 -41 28 -51 l21 -20
-26 0 c-33 0 -58 -9 -58 -21 0 -5 11 -9 25 -9 36 0 86 -34 101 -69 11 -26 18
-31 49 -31 19 0 35 -4 35 -9 0 -5 -9 -7 -20 -4 -11 3 -20 0 -20 -6 0 -6 15
-11 33 -12 158 -3 384 -16 394 -22 8 -5 9 -16 3 -35 -12 -39 -19 -163 -9 -156
5 3 9 34 9 70 0 82 18 104 88 104 26 0 65 5 87 10 22 5 87 14 145 20 58 6 124
13 148 16 40 6 42 5 42 -19 0 -17 -7 -28 -20 -32 -11 -4 -18 -11 -15 -16 3 -5
-10 -25 -30 -44 -34 -35 -48 -63 -22 -49 6 4 10 4 7 1 -3 -3 -19 -22 -35 -42
-17 -19 -60 -67 -98 -106 -37 -39 -64 -76 -61 -81 4 -7 2 -8 -4 -4 -6 4 -23
-1 -37 -10 -19 -13 -24 -22 -18 -38 3 -11 6 -46 5 -75 -3 -65 -22 -91 -66 -91
-29 0 -32 3 -34 33 -1 17 -5 50 -9 72 -4 22 -6 48 -4 58 1 9 -3 17 -8 17 -6 0
-11 -11 -11 -24 0 -14 -4 -28 -10 -31 -5 -3 -10 1 -10 9 0 9 -6 13 -15 10 -8
-3 -24 1 -37 10 -40 28 -79 16 -43 -14 8 -7 15 -19 15 -26 0 -8 25 -39 55 -70
48 -47 54 -59 49 -82 -4 -15 -12 -30 -17 -34 -8 -4 -7 -16 2 -35 12 -25 14
-26 25 -10 16 20 36 23 36 4 0 -8 9 -22 20 -32 11 -10 20 -27 20 -37 0 -11 5
-16 11 -13 6 4 8 9 5 12 -2 3 8 28 24 56 15 29 38 84 50 122 13 39 27 75 32
81 4 6 19 46 34 90 14 43 31 86 39 94 7 8 21 34 30 58 10 23 20 42 24 42 4 0
35 34 70 76 35 41 91 93 124 115 56 38 63 40 126 37 l66 -3 3 -35 c5 -70 13
-100 27 -100 8 0 17 -5 20 -11 10 -15 -3 -59 -18 -59 -6 0 -20 -11 -29 -24
-14 -19 -15 -31 -7 -67 7 -31 7 -45 -1 -47 -27 -9 -70 -56 -69 -75 0 -15 2
-17 6 -7 15 37 85 54 111 28 22 -22 13 -31 -13 -14 -28 18 -47 14 -39 -8 3 -8
-3 -20 -14 -27 -10 -8 -26 -27 -35 -44 -10 -19 -16 -24 -17 -13 0 9 5 20 10
23 17 10 11 25 -10 25 -17 0 -19 -5 -14 -25 5 -20 3 -24 -9 -19 -10 3 -20 -5
-30 -25 -18 -36 -11 -47 15 -24 19 17 19 16 12 -12 -4 -17 -16 -43 -27 -59
-14 -20 -16 -30 -8 -35 8 -5 4 -14 -11 -27 -34 -28 -86 -64 -95 -64 -16 0 -60
-45 -56 -57 3 -8 -5 -13 -21 -13 -14 0 -26 -4 -26 -10 0 -5 -10 -10 -22 -10
-38 1 -88 -12 -88 -21 0 -5 -12 -9 -27 -9 -31 -1 -56 -17 -66 -42 -7 -19 -22
-24 -31 -9 -7 10 -56 -9 -56 -21 0 -5 -5 -8 -11 -8 -6 0 -9 7 -5 15 6 16 -3
19 -28 9 -9 -3 -16 -13 -16 -21 0 -8 5 -11 10 -8 6 3 10 1 10 -4 0 -6 -13 -11
-29 -11 -17 0 -33 -4 -36 -10 -10 -16 -43 -11 -47 7 -3 15 -4 15 -21 -1 -22
-22 -12 -39 18 -32 13 3 26 2 29 -3 11 -17 -20 -30 -61 -25 -33 4 -44 1 -55
-14 -7 -10 -25 -22 -40 -26 -20 -4 -28 -13 -28 -28 0 -21 -1 -21 -17 -5 -17
17 -16 19 12 42 l30 25 -28 -2 c-32 -3 -73 -57 -49 -65 13 -5 44 -58 48 -83
18 -131 18 -124 -15 -143 -17 -10 -31 -22 -31 -27 0 -4 -10 -8 -22 -9 -91 -2
-118 -6 -118 -14 0 -5 -11 -6 -25 -3 -18 5 -25 2 -25 -8 0 -15 -49 -36 -86
-36 -12 0 -24 -5 -26 -10 -2 -7 -14 -7 -37 1 -26 9 -35 9 -41 -2 -13 -20 -59
7 -53 31 7 28 -15 64 -31 50 -19 -15 -46 -2 -57 27 -13 34 -11 43 6 37 8 -4
15 -11 15 -18 0 -17 81 -8 103 12 9 8 17 21 17 29 0 7 5 13 11 13 7 0 9 -10 4
-27 -6 -24 -5 -25 11 -12 33 26 89 91 107 122 9 18 17 49 17 70 0 30 3 38 14
34 8 -3 20 1 26 9 10 12 7 14 -18 14 -17 0 -32 -6 -36 -15 -3 -8 -17 -15 -30
-15 -21 0 -70 -16 -86 -28 -2 -2 2 -7 10 -12 16 -10 -29 -14 -174 -15 -77 0
-79 -1 -83 -26 -2 -16 4 -32 17 -44 11 -10 20 -31 20 -47 0 -15 5 -28 10 -28
6 0 8 -10 4 -24 -3 -13 -1 -40 4 -60 9 -32 8 -36 -9 -36 -12 0 -24 11 -32 28
-13 31 -27 43 -39 35 -11 -6 0 -43 19 -61 8 -8 13 -26 12 -41 -1 -14 2 -34 6
-45 5 -11 3 -26 -4 -37 -7 -12 -7 -19 -1 -19 13 0 13 -113 -1 -127 -7 -7 -5
-12 8 -15 17 -5 18 3 14 110 l-3 114 28 -15 c16 -9 67 -33 114 -55 99 -45 120
-63 120 -103 0 -23 -8 -34 -35 -50 -36 -21 -47 -36 -20 -25 8 3 15 0 15 -5 0
-7 -9 -9 -22 -5 -13 3 -43 -2 -67 -11 -34 -13 -51 -14 -83 -6 -31 8 -38 8 -34
-2 3 -10 -18 -15 -82 -22 -109 -10 -476 -7 -559 5 -55 8 -63 7 -62 -7 1 -25
27 -88 28 -68 1 26 26 48 45 41 20 -8 20 -13 -1 -36 -9 -10 -13 -21 -10 -24 9
-9 37 15 37 32 0 17 42 18 59 2 10 -11 14 -10 22 5 12 21 41 21 122 3 34 -8
104 -22 154 -32 51 -9 97 -22 104 -30 14 -17 8 -56 -10 -62 -10 -3 -12 0 -8
12 4 9 4 16 1 16 -7 0 -68 -43 -75 -54 -4 -4 -9 -3 -13 2 -7 12 -107 27 -128
19 -7 -2 15 -10 50 -17 57 -12 67 -18 63 -45 -1 -5 5 -2 13 8 20 26 26 0 8
-35 -17 -35 -39 -36 -52 -3 -5 14 -16 25 -25 25 -21 0 -19 -7 16 -52 21 -26
34 -36 39 -28 6 10 16 10 44 0 46 -15 48 -40 4 -40 -38 0 -52 -8 -61 -33 -6
-15 -10 -16 -28 -6 -15 8 -52 9 -120 4 -91 -6 -100 -5 -127 15 -26 19 -35 21
-63 12 -42 -13 -72 -12 -81 2 -5 7 -19 5 -43 -7 -38 -18 -74 -79 -75 -126 0
-14 -8 -34 -17 -45 -17 -19 -17 -19 19 1 20 12 57 25 82 28 36 6 46 11 48 29
2 17 10 21 43 21 43 0 44 -2 31 -61 -7 -30 -4 -34 61 -82 37 -27 83 -58 100
-68 18 -11 91 -54 162 -96 72 -43 134 -78 138 -78 5 0 16 -9 26 -20 18 -21 37
-27 37 -11 0 5 -6 12 -12 15 -9 3 -8 9 6 20 10 8 23 13 29 9 14 -8 28 19 16
33 -7 9 -3 17 13 29 15 11 19 19 11 22 -7 3 -13 12 -13 22 0 38 142 273 191
317 28 24 105 69 136 78 l22 7 -19 -53 c-10 -29 -20 -79 -23 -110 -4 -50 -3
-55 10 -42 8 7 24 14 36 14 16 0 18 -3 9 -12 -14 -14 -17 -92 -3 -84 5 3 16
21 25 40 12 27 24 35 53 41 34 6 40 4 66 -25 l29 -32 -38 -35 c-34 -31 -42
-34 -88 -31 -34 2 -50 7 -49 16 2 6 -1 12 -6 12 -5 0 -7 -18 -4 -39 4 -27 0
-46 -11 -62 -9 -13 -16 -42 -16 -64 0 -22 -9 -80 -20 -129 -18 -81 -18 -93 -5
-133 8 -24 15 -52 15 -61 0 -10 4 -22 8 -27 5 -6 17 -37 26 -70 10 -33 23 -73
31 -90 39 -91 55 -168 36 -179 -5 -4 -27 0 -47 9 -51 21 -66 19 -124 -15 -28
-16 -57 -30 -64 -30 -7 0 -22 -9 -34 -20 -12 -11 -26 -20 -32 -20 -27 0 -147
-85 -230 -162 -49 -47 -90 -88 -90 -92 0 -7 -37 -49 -127 -147 -29 -31 -53
-61 -53 -68 0 -7 -7 -10 -17 -7 -10 3 -38 8 -63 11 -25 3 -53 8 -63 11 -10 3
-26 0 -35 -8 -15 -11 -16 -11 -4 3 10 14 9 17 -7 22 -11 2 -24 0 -30 -6 -6 -6
-14 -7 -18 -3 -4 4 -1 11 7 16 18 11 15 14 -32 33 -33 14 -37 21 -49 71 -7 31
-18 61 -26 67 -18 15 -17 33 2 25 27 -10 16 9 -16 27 -56 31 -104 15 -111 -37
-2 -19 3 -32 14 -40 26 -16 34 1 12 25 -20 23 -18 23 29 -1 17 -8 26 -19 22
-28 -3 -7 2 -20 10 -28 8 -9 15 -23 15 -32 0 -9 16 -33 36 -52 19 -19 45 -49
57 -67 14 -21 28 -31 38 -28 13 5 15 -8 13 -100 -3 -107 -7 -125 -25 -125 -7
0 -8 23 -4 64 5 42 3 66 -4 70 -7 4 -11 -1 -11 -13 0 -12 -4 -21 -9 -21 -11 0
-51 -106 -51 -138 0 -15 -7 -36 -15 -46 -19 -25 -19 -37 0 -30 21 9 19 2 -13
-39 -24 -30 -30 -50 -41 -143 -7 -64 -18 -115 -27 -125 -8 -8 -14 -21 -14 -27
0 -7 -9 -17 -20 -24 -11 -7 -20 -16 -20 -20 0 -12 35 -9 48 4 9 9 12 9 12 0 0
-7 0 -15 0 -19 0 -5 -9 -9 -21 -9 -30 -2 -34 -10 -58 -119 -12 -55 -26 -116
-32 -136 -5 -20 -9 -52 -9 -70 0 -19 -9 -51 -20 -72 -12 -21 -22 -51 -23 -66
-1 -15 -6 -28 -12 -28 -5 0 -21 -3 -35 -8 l-25 -7 21 23 c11 13 25 42 31 64
28 102 33 125 33 163 0 22 4 43 9 46 5 3 11 32 14 63 15 141 20 174 28 179 15
9 10 22 -11 29 -25 8 -17 25 11 25 16 0 19 5 14 19 -3 12 1 28 12 41 10 11 19
28 20 38 5 44 33 121 57 156 17 25 23 43 17 49 -6 6 -5 15 5 24 8 8 14 34 14
60 l0 46 -23 -21 c-29 -28 -37 -28 -34 -1 1 12 -4 24 -10 26 -10 4 -13 -14
-13 -67 0 -67 1 -71 20 -65 17 5 20 2 20 -20 0 -21 -4 -26 -16 -21 -21 8 -43
-20 -44 -54 0 -14 -5 -32 -10 -40 -7 -10 -8 31 -4 125 4 77 11 145 16 152 5 7
8 16 5 20 -3 4 -2 47 2 95 3 47 3 84 -1 82 -5 -3 -8 2 -8 10 0 9 6 15 13 13 8
-1 13 17 15 61 2 46 0 62 -10 62 -27 0 -37 37 -32 112 8 102 6 128 -7 145 -9
10 -9 17 -1 25 16 16 15 96 -3 195 -18 107 -4 165 57 224 22 21 36 39 32 39
-5 0 -15 14 -22 30 -18 39 -36 39 -29 1 4 -20 1 -33 -9 -42 -14 -12 -15 -5
-10 58 3 39 2 81 -2 93 -10 27 -35 -149 -57 -400 -9 -96 -25 -251 -36 -345
-12 -93 -25 -271 -29 -395 -8 -223 -8 -226 -44 -333 -27 -79 -40 -139 -47
-220 -12 -131 -7 -176 26 -236 l25 -43 -27 -21 c-16 -12 -40 -35 -55 -51 -33
-35 -98 -159 -98 -185 0 -10 -9 -26 -20 -36 -11 -10 -20 -25 -20 -33 0 -12 -2
-12 -16 -1 -9 8 -27 12 -39 11 -15 -2 -25 5 -33 22 -12 27 -52 55 -52 36 0 -6
-24 -10 -59 -9 -32 1 -64 -2 -70 -5 -14 -9 -90 -10 -98 -2 -4 3 2 12 12 20 13
9 15 15 6 20 -6 4 -18 3 -26 -4 -11 -9 -16 -7 -25 9 -6 12 -20 21 -32 21 -12
0 -32 10 -45 22 -18 17 -22 18 -18 6 10 -25 -5 -45 -19 -27 -22 30 -147 129
-161 129 -13 0 -14 -4 -4 -22 12 -22 11 -22 -8 -5 -11 9 -25 17 -32 17 -7 0
-11 6 -8 13 2 6 14 11 25 9 13 -2 22 2 22 10 0 10 -20 13 -75 13 -56 0 -77 4
-87 16 -17 21 -90 49 -130 49 -19 0 -45 11 -67 28 -44 33 -103 62 -114 55 -16
-9 -75 66 -82 105 -20 105 -52 129 -211 157 -49 8 -107 25 -129 36 -132 70
-177 90 -190 85 -8 -3 -19 3 -25 13 -11 21 -54 33 -69 18 -16 -16 -57 1 -113
49 -29 25 -87 63 -128 84 -45 22 -106 66 -150 106 l-75 69 52 -61 53 -60 2
-80 c2 -71 0 -83 -24 -118 -15 -22 -25 -43 -22 -48 3 -5 1 -14 -4 -21 -5 -7
-12 -24 -16 -40 -6 -26 -9 -27 -54 -24 -36 2 -49 8 -58 25 -9 19 -12 20 -25 6
-16 -15 -49 -10 -49 8 0 5 5 6 10 3 6 -3 10 -1 10 4 0 6 -7 11 -16 11 -14 0
-47 27 -137 113 -16 15 -31 27 -34 27 -2 0 -22 19 -44 43 -37 39 -40 45 -34
85 7 46 -9 59 -25 20 -8 -20 -9 -19 -9 13 -1 31 4 38 34 55 l35 18 -28 23
c-15 12 -43 28 -62 34 -19 6 -40 15 -46 20 -6 5 -28 8 -49 7 -23 -1 -42 4 -49
13 -6 9 -39 24 -73 35 -35 10 -63 22 -63 27 0 4 -14 7 -32 7 -17 0 -45 10 -62
24 -17 13 -46 27 -63 30 -18 4 -35 12 -39 17 -3 5 -32 27 -65 49 -55 38 -59
44 -59 78 0 21 6 46 13 55 11 16 19 16 64 7 29 -7 51 -17 50 -23 -1 -6 8 -13
21 -15 l22 -3 -20 34 c-11 19 -47 60 -79 91 -33 31 -53 56 -45 56 21 0 17 9
-23 54 -54 60 -132 160 -174 222 -33 51 -130 124 -164 124 -7 0 -32 -18 -57
-40 -39 -34 -46 -46 -52 -89 -8 -58 5 -95 56 -168 47 -68 98 -153 113 -189 7
-17 32 -47 55 -65 23 -19 47 -45 52 -59 8 -21 5 -28 -17 -47 -14 -13 -33 -23
-43 -23 -9 0 -29 -12 -44 -27 -24 -23 -30 -25 -38 -13 -5 8 -10 10 -10 4 0
-20 58 -101 89 -123 17 -12 30 -27 28 -33 -4 -21 38 -17 63 6 36 34 64 46 104
46 41 0 103 -33 111 -60 9 -28 91 -43 126 -23 34 20 114 10 123 -15 3 -9 10
-28 16 -40 8 -20 7 -25 -10 -29 -11 -3 -20 -13 -20 -23 0 -42 -137 -49 -148
-8 -3 15 -11 18 -31 13 -39 -8 -90 -9 -147 -1 -40 6 -53 4 -64 -9 -9 -11 -26
-15 -50 -14 -19 2 -41 0 -48 -5 -8 -5 -16 2 -22 20 -7 18 -14 24 -21 17 -14
-14 10 -76 27 -69 8 3 14 -4 16 -17 2 -14 24 -35 66 -60 l64 -38 51 17 c29 10
59 23 67 30 31 24 81 45 103 42 12 -1 49 4 82 11 75 17 255 10 307 -12 63 -26
74 -86 25 -135 -25 -24 -137 -58 -137 -41 0 5 -42 9 -94 9 -53 0 -98 4 -101
10 -9 15 -35 12 -35 -5 0 -20 -30 -33 -65 -28 -21 3 -47 -4 -79 -21 -27 -14
-60 -26 -72 -26 -38 0 -30 -35 21 -89 52 -56 99 -81 118 -62 9 9 8 16 -1 32
-11 18 -11 23 5 35 17 13 77 34 98 34 6 0 16 9 23 20 7 11 22 20 33 20 12 0
36 8 53 19 26 15 151 35 201 31 126 -9 185 -30 185 -65 0 -16 -59 -69 -94 -84
-41 -17 -240 -35 -244 -21 -6 16 -17 12 -46 -15 -20 -18 -33 -23 -54 -19 -16
3 -45 -1 -67 -10 -26 -11 -42 -13 -49 -6 -5 5 -19 10 -29 10 -18 0 -19 -5 -14
-58 2 -32 14 -76 25 -98 48 -93 225 -228 383 -289 34 -14 66 -30 70 -36 4 -7
1 -27 -7 -45 -8 -18 -14 -46 -14 -60 0 -15 -5 -42 -11 -59 -21 -56 -6 -80 69
-116 37 -17 198 -94 357 -171 525 -253 671 -320 933 -423 103 -40 277 -112
387 -160 247 -107 520 -219 685 -279 69 -26 144 -53 167 -62 42 -15 43 -17 43
-62 0 -26 -7 -96 -14 -157 -17 -130 -23 -273 -36 -805 -10 -410 -17 -546 -50
-935 -19 -215 -34 -331 -139 -1025 -73 -483 -91 -649 -97 -895 -7 -267 3 -336
61 -440 l35 -64 48 3 c26 2 88 7 138 11 57 5 94 4 97 -2 4 -6 13 -160 22 -344
8 -184 18 -343 21 -354 3 -11 9 -157 14 -325 l9 -305 51 -245 c28 -135 89
-470 136 -745 151 -890 185 -1063 271 -1395 31 -118 62 -244 70 -280 8 -36 21
-75 29 -87 7 -12 14 -37 14 -55 0 -18 5 -49 10 -68 6 -19 19 -89 30 -155 11
-66 24 -150 31 -188 l11 -67 896 2 897 3 7 85 c3 47 11 153 17 235 12 161 35
289 76 418 49 155 35 248 -68 459 -79 160 -90 198 -102 355 -3 45 -16 108 -27
140 -19 51 -21 78 -20 223 1 96 8 200 17 250 19 109 19 163 -1 203 -14 26 -16
51 -10 162 9 178 24 292 42 327 13 25 14 58 8 209 -6 156 -5 179 8 179 9 0 20
-6 26 -13 12 -15 62 -178 62 -204 0 -10 7 -28 15 -40 8 -11 17 -40 21 -64 4
-24 14 -60 24 -79 38 -76 42 -89 35 -100 -4 -7 8 -62 28 -124 20 -61 40 -129
46 -151 6 -22 37 -125 70 -230 33 -104 67 -218 75 -252 9 -34 45 -128 80 -210
35 -81 78 -183 96 -226 18 -43 80 -158 139 -256 69 -115 117 -206 134 -257 14
-43 56 -149 92 -234 37 -85 79 -202 95 -260 25 -98 90 -263 111 -285 5 -5 9
-19 9 -31 0 -12 6 -37 14 -56 8 -18 22 -66 32 -106 l17 -72 1029 0 c955 0
1028 1 1028 17 0 26 -89 150 -139 194 -67 58 -209 217 -236 263 l-23 41 20 75
c23 87 21 208 -4 255 -16 31 -45 139 -58 215 -4 24 -13 46 -19 48 -6 2 -11 12
-11 21 0 10 -9 28 -20 41 -11 13 -25 40 -30 62 -6 21 -15 57 -21 80 -6 23 -21
62 -34 87 -56 109 -76 172 -85 274 -13 132 -13 291 -1 342 18 71 13 216 -14
347 -23 118 -31 188 -55 488 -11 132 -62 510 -98 720 -17 101 -17 108 0 175 9
39 20 98 24 131 l7 62 -60 64 c-55 59 -61 69 -68 124 -4 32 -22 112 -41 176
-36 123 -43 189 -21 205 14 11 201 49 297 60 65 8 65 8 62 38 -2 17 -33 163
-68 325 -106 479 -121 559 -169 895 -25 176 -68 448 -95 605 -74 423 -108 650
-121 805 -12 150 -7 377 12 485 15 86 15 333 0 440 -7 47 -25 144 -41 215 -16
72 -36 187 -45 256 l-17 126 42 64 c62 96 102 188 158 361 70 215 79 255 92
397 l11 124 105 215 c57 118 104 222 104 231 0 9 13 48 28 86 16 39 37 95 48
125 13 39 42 83 99 150 83 97 116 146 128 190 4 14 12 97 17 185 6 105 16 182
29 225 10 36 34 112 51 170 34 114 64 257 75 360 4 36 17 119 30 185 66 337
58 661 -21 835 -33 73 -210 305 -270 356 -50 41 -170 121 -311 207 -100 61
-292 196 -411 289 -51 40 -141 106 -200 146 -58 40 -110 79 -115 88 -5 9 -16
13 -27 9 -11 -4 -28 1 -40 12 -45 38 -103 99 -126 133 -47 69 -123 175 -136
190 -7 8 -15 30 -18 49 -4 26 -12 39 -30 48 -35 16 -174 43 -240 46 -53 2 -55
1 -58 -25 -3 -29 -34 -40 -47 -17 -4 5 -18 14 -31 19 -22 9 -29 25 -25 58 1 9
-6 11 -22 7 -32 -8 -47 13 -22 32 11 7 13 13 7 13 -21 0 -13 35 18 81 44 67
119 281 150 429 6 30 22 78 35 105 14 28 25 58 25 68 0 9 9 34 20 54 11 21 20
48 20 61 0 24 25 133 37 162 4 8 8 24 9 35 3 23 18 60 36 90 97 158 128 217
128 246 0 11 16 52 36 92 37 72 68 213 78 345 2 36 10 60 24 75 48 51 53 114
17 202 -26 63 -32 123 -15 155 9 16 4 26 -30 56 -40 36 -52 64 -27 64 7 0 18
-5 25 -12 20 -20 14 1 -9 32 -17 22 -20 37 -16 65 5 28 2 40 -14 53 -10 9 -19
24 -19 33 0 19 -28 46 -54 50 -22 5 -54 54 -55 86 -1 34 -22 72 -43 79 -10 3
-30 23 -44 45 -13 21 -32 39 -42 39 -15 0 -33 10 -111 62 -14 10 -36 18 -47
18 -12 0 -43 17 -70 38 -65 51 -142 92 -159 86 -7 -3 -27 2 -44 10 -16 9 -51
16 -76 16 -51 0 -103 18 -124 43 -14 18 -46 24 -36 7 3 -5 -3 -10 -14 -10 -12
0 -21 5 -21 10 0 6 -12 21 -27 34 -21 19 -31 21 -44 13 -13 -8 -25 -7 -45 2
-24 11 -30 10 -40 -3 -13 -18 -24 -11 -24 16 0 14 -5 18 -19 13 -12 -3 -21 0
-25 10 -3 9 -16 14 -33 13 -15 -1 -49 -1 -75 0 -41 2 -48 5 -48 22 0 26 -20
26 -27 0 -7 -26 -27 -21 -31 8 -4 26 -6 27 -37 6 -19 -12 -37 -14 -77 -9 -29
4 -56 12 -60 18 -4 7 -15 4 -33 -7 -21 -14 -33 -15 -55 -8 -16 6 -31 8 -34 5
-2 -3 -15 2 -28 11 -28 20 -49 21 -42 2z m-3 -53 c-7 -2 -21 -2 -30 0 -10 3
-4 5 12 5 17 0 24 -2 18 -5z m-48 -23 c3 -6 -6 -15 -22 -21 -27 -10 -27 -11
-8 -21 11 -6 32 -22 47 -36 24 -22 35 -25 93 -23 61 2 65 1 65 -20 0 -15 4
-19 16 -15 9 3 27 6 42 6 33 0 17 20 -19 24 -13 1 -34 11 -47 22 -12 10 -43
21 -67 24 -55 6 -62 21 -17 35 17 5 32 13 32 17 0 16 21 7 51 -21 23 -22 44
-31 84 -36 29 -4 58 -4 63 -1 6 3 22 -8 36 -26 17 -22 28 -30 35 -23 7 7 3 19
-12 35 l-23 25 22 17 c27 22 38 22 54 3 15 -18 50 -20 50 -2 0 6 14 20 32 30
l31 18 39 -41 c21 -22 46 -40 54 -40 10 0 14 -6 11 -14 -3 -7 -1 -18 4 -23 6
-6 6 -18 0 -34 -6 -15 -10 -18 -10 -8 -1 9 -12 20 -26 23 -14 4 -25 12 -25 19
-1 17 -92 59 -104 47 -6 -6 -23 -10 -38 -10 -19 0 -28 -5 -28 -15 0 -12 5 -13
18 -7 14 7 62 9 82 3 3 -1 -6 -10 -19 -20 -18 -14 -21 -22 -14 -35 9 -16 11
-16 22 -2 15 18 56 21 66 6 4 -6 -8 -10 -29 -10 -29 0 -36 -4 -36 -20 0 -23
-4 -24 -31 -10 -10 6 -19 17 -19 25 0 8 -4 15 -10 15 -5 0 -10 -4 -10 -8 0 -5
-19 -16 -41 -25 -36 -14 -44 -15 -62 -2 -22 16 -47 5 -47 -21 0 -10 -9 -12
-30 -7 -19 3 -52 -2 -88 -15 -58 -21 -144 -37 -174 -33 -30 4 -28 -16 3 -29
23 -10 33 -10 42 -1 13 13 47 15 47 3 0 -5 -21 -30 -46 -55 -36 -37 -53 -47
-79 -47 l-33 0 13 -37 c16 -47 12 -54 -26 -46 -24 4 -33 1 -45 -15 -12 -18
-19 -20 -42 -11 -34 13 -129 14 -162 1 -27 -10 -164 0 -140 11 46 20 102 36
113 31 8 -3 27 0 43 7 16 6 53 11 82 10 58 -3 71 14 20 27 -43 11 -52 37 -9
27 34 -7 39 0 16 25 -12 13 -27 16 -60 12 -39 -4 -45 -2 -45 14 0 17 8 19 64
19 48 0 69 5 84 18 13 12 28 16 41 12 12 -3 21 -2 21 4 0 5 -12 11 -27 13 -17
2 -29 10 -31 21 -3 14 4 17 37 17 26 0 43 -5 49 -16 8 -15 10 -15 16 1 4 11 0
22 -11 31 -16 12 -13 13 25 14 46 0 50 4 27 27 -20 19 -10 33 23 33 25 0 26 1
9 18 -17 16 -19 16 -32 -2 -12 -16 -22 -17 -87 -11 -57 6 -78 12 -97 31 -13
13 -28 24 -33 24 -5 0 -6 5 -3 10 10 16 83 12 92 -5 5 -8 24 -18 42 -21 33 -7
33 -7 26 24 -11 51 1 72 40 72 19 0 37 -5 40 -10z m-105 -42 c0 -19 -2 -20
-10 -8 -13 19 -13 30 0 30 6 0 10 -10 10 -22z m-155 -68 c3 -5 20 -10 38 -10
22 0 28 -3 20 -11 -5 -5 -44 -11 -86 -12 -59 -2 -78 1 -82 12 -3 8 0 18 7 23
18 11 96 10 103 -2z m-212 -78 c-2 -10 97 -52 123 -52 8 0 14 -4 14 -10 0 -5
-12 -7 -27 -4 -16 3 -50 8 -77 12 -52 7 -74 27 -63 56 7 18 34 16 30 -2z m357
8 c0 -5 -3 -10 -7 -11 -5 0 -18 -2 -30 -5 -22 -4 -30 6 -16 19 10 11 53 8 53
-3z m238 -137 c-2 -13 6 -19 31 -23 l34 -5 -46 -13 c-25 -8 -55 -12 -66 -10
-21 3 -21 4 8 36 34 36 43 40 39 15z m-548 -44 c0 -6 -4 -7 -10 -4 -5 3 -10
11 -10 16 0 6 5 7 10 4 6 -3 10 -11 10 -16z m420 -50 c0 -6 -7 -17 -15 -25
-13 -14 -15 -13 -15 4 0 10 3 22 7 25 10 11 23 8 23 -4z m-177 -118 c17 -17
-19 -24 -80 -17 -63 7 -76 13 -67 28 8 13 133 3 147 -11z m-230 -38 c-7 -2
-19 -2 -25 0 -7 3 -2 5 12 5 14 0 19 -2 13 -5z m220 -54 c37 -6 69 -15 72 -19
7 -12 -155 -3 -170 10 -22 18 -18 31 8 26 12 -3 52 -10 90 -17z m-158 -15
c-15 -11 -43 -14 -105 -13 -47 0 -91 0 -99 -2 -8 -2 -16 3 -18 12 -3 14 12 16
119 17 112 1 121 0 103 -14z m-205 -50 c0 -8 -5 -12 -10 -9 -6 4 -8 11 -5 16
9 14 15 11 15 -7z m133 -13 c14 -14 9 -17 -39 -25 -43 -6 -73 11 -60 33 8 13
85 6 99 -8z m-203 5 c0 -2 -7 -6 -15 -10 -8 -3 -15 -1 -15 4 0 6 7 10 15 10 8
0 15 -2 15 -4z m-39 -32 c-1 -9 -51 -18 -51 -9 0 7 43 24 48 20 2 -2 3 -7 3
-11z m327 -11 c3 -10 -15 -13 -67 -13 -40 0 -71 4 -71 10 0 5 13 7 29 4 17 -4
32 -1 36 6 9 14 67 9 73 -7z m-238 -29 c0 -2 -9 -4 -20 -4 -11 0 -20 4 -20 9
0 5 9 7 20 4 11 -3 20 -7 20 -9z m1637 -35 c-11 -18 -12 -18 -18 8 -7 37 1 50
17 28 10 -13 10 -21 1 -36z m-622 -9 c3 -5 1 -10 -4 -10 -6 0 -11 5 -11 10 0
6 2 10 4 10 3 0 8 -4 11 -10z m-951 -19 c8 -12 -29 -21 -88 -21 -56 0 -53 16
4 23 65 7 79 7 84 -2z m831 -12 c-16 -5 -44 -14 -61 -19 -28 -9 -190 -3 -180
7 4 4 180 20 236 21 l35 0 -30 -9z m765 3 c0 -21 -104 -92 -116 -79 -9 9 23
45 61 68 32 20 55 24 55 11z m46 -37 c-26 -19 -42 -19 -26 0 7 8 20 15 29 15
13 -1 13 -3 -3 -15z m-1586 -14 c0 -5 -7 -14 -16 -21 -13 -11 -19 -10 -37 8
l-21 22 37 0 c20 0 37 -4 37 -9z m55 -20 c-8 -13 -35 -15 -35 -2 0 5 8 11 18
13 21 5 26 2 17 -11z m-200 -21 c3 -5 -1 -10 -10 -10 -9 0 -13 5 -10 10 3 6 8
10 10 10 2 0 7 -4 10 -10z m95 0 c0 -5 -15 -10 -32 -9 -31 1 -32 1 -8 9 35 11
40 11 40 0z m1515 -47 c-11 -7 -24 -13 -31 -13 -6 0 -15 -10 -19 -22 -4 -17
-8 -19 -12 -9 -7 16 56 73 71 64 5 -3 1 -12 -9 -20z m-155 -113 c0 -11 -4 -20
-10 -20 -5 0 -10 9 -10 20 0 11 5 20 10 20 6 0 10 -9 10 -20z m173 -50 c3 -11
1 -23 -4 -26 -5 -3 -9 6 -9 20 0 31 6 34 13 6z m-1753 -13 c0 -2 -9 -12 -20
-22 -24 -21 -27 -14 -4 9 15 15 24 20 24 13z m1370 -126 c0 -6 -4 -13 -10 -16
-5 -3 -10 1 -10 9 0 9 5 16 10 16 6 0 10 -4 10 -9z m63 -157 c1 -27 -2 -49 -8
-49 -5 0 -8 12 -6 27 1 14 -2 29 -7 32 -5 3 -7 17 -4 31 7 40 22 15 25 -41z
m-13 -215 c0 -35 -15 -57 -18 -26 -1 6 -3 23 -5 37 -4 30 1 42 14 35 5 -4 9
-24 9 -46z m60 21 c0 -5 -4 -10 -9 -10 -6 0 -13 5 -16 10 -3 6 1 10 9 10 9 0
16 -4 16 -10z m31 -73 c-10 -9 -11 -8 -5 6 3 10 9 15 12 12 3 -3 0 -11 -7 -18z
m-1731 -97 c0 -5 -4 -10 -10 -10 -5 0 -10 5 -10 10 0 6 5 10 10 10 6 0 10 -4
10 -10z m460 -14 c0 -3 -4 -8 -10 -11 -5 -3 -10 -1 -10 4 0 6 5 11 10 11 6 0
10 -2 10 -4z m-30 -36 c0 -5 -5 -10 -11 -10 -5 0 -7 5 -4 10 3 6 8 10 11 10 2
0 4 -4 4 -10z m-224 -97 c-7 -7 -26 7 -26 19 0 6 6 6 15 -2 9 -7 13 -15 11
-17z m54 -4 c0 -5 -10 -9 -21 -9 -18 0 -19 2 -9 15 12 15 30 12 30 -6z m2010
-9 c29 0 46 -8 79 -37 34 -31 45 -51 61 -108 21 -74 28 -183 10 -155 -5 8 -10
39 -10 68 0 38 -4 54 -15 59 -9 3 -29 18 -45 34 -27 28 -75 39 -82 20 -1 -5
-16 -12 -33 -16 l-30 -6 23 17 c35 26 29 46 -8 28 -16 -9 -30 -20 -30 -25 0
-5 -13 -9 -28 -9 -35 0 -96 -58 -86 -83 5 -14 2 -14 -25 -4 -55 20 -46 81 21
144 34 32 131 84 146 78 8 -3 31 -5 52 -5z m-1655 -48 c-3 -3 -11 0 -18 7 -9
10 -8 11 6 5 10 -3 15 -9 12 -12z m-635 -23 c0 -6 -4 -7 -10 -4 -5 3 -10 11
-10 16 0 6 5 7 10 4 6 -3 10 -11 10 -16z m585 -19 c3 -5 -1 -10 -9 -10 -9 0
-16 5 -16 10 0 6 4 10 9 10 6 0 13 -4 16 -10z m126 -18 c6 -15 5 -22 -4 -22
-23 0 -40 18 -33 35 8 22 27 15 37 -13z m1090 -82 c-2 -8 -5 -31 -6 -50 -3
-53 -4 -55 -17 -42 -7 7 -13 35 -14 63 -1 45 1 50 20 47 13 -2 19 -9 17 -18z
m517 -87 c11 -16 22 -45 26 -65 4 -21 10 -38 14 -38 4 0 20 14 36 30 16 17 34
30 39 30 21 0 -38 -200 -75 -253 -26 -38 -111 -141 -118 -145 -3 -1 -29 -18
-57 -36 -29 -19 -66 -37 -82 -41 -17 -4 -33 -11 -36 -16 -8 -12 -68 -12 -81 1
-5 5 -25 12 -44 14 -19 2 -38 4 -42 5 -12 2 -10 84 3 119 6 16 27 42 48 56 26
18 42 39 50 66 6 22 16 40 21 40 6 0 10 8 10 17 0 12 -19 -3 -53 -41 -37 -41
-56 -56 -61 -47 -4 6 -3 18 4 26 18 21 -7 29 -35 11 -16 -11 -26 -12 -30 -5
-4 6 -14 8 -22 5 -14 -6 -14 -4 0 17 14 21 13 25 -4 48 -17 22 -17 25 -1 37
14 10 14 16 4 32 -16 27 -15 30 10 30 12 0 30 8 40 17 13 12 42 19 89 21 l69
4 0 -46 c0 -34 4 -46 15 -46 11 0 15 12 16 43 0 36 2 39 12 23 7 -10 24 -32
40 -48 15 -17 27 -32 27 -33 0 -16 -15 -35 -28 -35 -12 0 -13 -3 -4 -12 9 -9
17 -7 35 10 13 12 26 20 29 17 2 -3 14 5 26 18 17 18 22 37 23 92 2 55 7 74
22 88 28 24 43 21 65 -10z m-248 -29 c0 -8 -4 -14 -10 -14 -5 0 -10 9 -10 21
0 11 5 17 10 14 6 -3 10 -13 10 -21z m-281 -131 l-1 -38 -13 30 c-13 30 -11
45 6 45 5 0 9 -17 8 -37z m81 -163 c0 -5 -2 -10 -4 -10 -3 0 -8 5 -11 10 -3 6
-1 10 4 10 6 0 11 -4 11 -10z m50 -14 c0 -3 -4 -8 -10 -11 -5 -3 -10 -1 -10 4
0 6 5 11 10 11 6 0 10 -2 10 -4z m-150 -80 c0 -3 -4 -8 -10 -11 -5 -3 -10 -1
-10 4 0 6 5 11 10 11 6 0 10 -2 10 -4z m-443 -352 c-3 -3 -12 -4 -19 -1 -8 3
-5 6 6 6 11 1 17 -2 13 -5z m703 -310 c0 -8 -5 -12 -10 -9 -6 4 -8 11 -5 16 9
14 15 11 15 -7z m40 -34 c0 -5 -7 -10 -15 -10 -8 0 -15 5 -15 10 0 6 7 10 15
10 8 0 15 -4 15 -10z m402 -179 c-18 -22 -32 -49 -32 -60 0 -12 -5 -21 -11
-21 -6 0 -9 7 -5 15 5 13 2 14 -15 5 -11 -6 -23 -18 -26 -26 -3 -8 -15 -14
-27 -14 -16 0 -3 17 59 74 44 41 82 72 84 70 2 -2 -10 -22 -27 -43z m-438 0
c38 -35 158 -93 170 -81 16 16 26 12 26 -10 0 -13 7 -20 19 -20 11 0 23 -5 26
-11 9 -13 -49 -87 -103 -132 -41 -34 -140 -170 -118 -161 6 3 29 30 51 60 37
52 143 154 160 154 4 0 4 -11 1 -24 -3 -14 -1 -28 5 -31 7 -5 5 -13 -6 -25 -8
-9 -13 -23 -10 -31 3 -9 -11 -24 -37 -41 -42 -27 -43 -28 -14 -28 25 0 27 -3
22 -23 -4 -18 0 -27 18 -37 15 -7 26 -24 28 -42 5 -34 -6 -45 -28 -27 -12 10
-18 9 -31 -4 -13 -13 -14 -19 -3 -31 11 -14 9 -16 -9 -16 -15 0 -21 5 -19 18
2 11 -4 18 -19 20 -13 2 -23 10 -23 17 0 19 -47 72 -56 63 -4 -4 -1 -14 6 -23
7 -8 10 -21 7 -29 -3 -7 0 -19 6 -25 15 -15 10 -17 -50 -25 -34 -4 -53 -3 -53
4 0 5 -4 10 -8 10 -14 0 -1 -61 14 -67 28 -10 13 -23 -26 -23 -33 0 -40 -3
-40 -20 0 -13 -9 -22 -25 -26 -26 -6 -32 -18 -16 -28 14 -9 41 4 41 20 0 8 9
14 20 14 11 0 20 -4 20 -8 0 -14 -23 -32 -42 -32 -10 0 -18 -4 -18 -10 0 -5 4
-10 9 -10 5 0 11 -6 14 -14 9 -22 -4 -56 -20 -56 -20 0 -47 -27 -31 -32 6 -2
8 -10 4 -17 -6 -9 -11 -9 -22 0 -22 18 -42 3 -46 -33 -3 -28 -7 -33 -33 -35
-16 -1 -40 -5 -52 -8 -21 -5 -21 -5 5 -35 15 -16 32 -30 39 -30 7 0 13 -4 13
-8 0 -14 -64 -12 -72 1 -6 9 -8 9 -8 0 0 -7 -7 -13 -15 -13 -8 0 -15 -7 -15
-15 0 -8 7 -15 15 -15 8 0 15 -4 15 -10 0 -16 -19 -12 -42 10 -30 27 -35 25
-30 -12 l5 -32 -34 34 c-28 28 -35 31 -37 16 -2 -10 6 -24 17 -32 27 -19 27
-38 1 -31 -19 5 -50 -15 -50 -32 0 -4 16 -5 35 -3 23 3 36 11 40 23 6 18 35
28 35 12 -1 -18 -51 -63 -69 -63 -11 0 -28 -12 -38 -26 -16 -25 -17 -25 -30
-8 -14 19 -15 19 -28 0 -8 -11 -12 -30 -8 -47 6 -29 -4 -38 -23 -19 -11 11
-74 -41 -74 -61 0 -8 4 -8 15 1 20 17 20 -3 -1 -35 -9 -13 -13 -29 -10 -34 4
-5 2 -12 -4 -16 -5 -3 -10 -15 -10 -26 0 -12 -5 -19 -12 -16 -15 5 -11 39 5
49 9 6 8 8 -1 8 -20 0 -64 -49 -56 -62 4 -6 3 -8 -3 -5 -13 8 -24 -17 -17 -37
3 -9 -9 -22 -34 -36 -40 -22 -106 -112 -99 -133 2 -6 21 12 41 41 21 28 42 52
46 52 9 0 5 -78 -4 -88 -3 -3 -6 2 -6 11 0 9 -4 17 -10 17 -5 0 -10 -4 -10
-10 0 -18 -61 -79 -74 -74 -7 3 -20 -11 -31 -35 -10 -22 -26 -48 -36 -57 -11
-10 -19 -24 -19 -32 0 -8 -11 -27 -25 -44 -14 -16 -25 -38 -25 -49 0 -10 -4
-19 -10 -19 -5 0 -10 -9 -10 -21 0 -11 -18 -46 -40 -76 -22 -31 -40 -65 -40
-75 0 -10 -4 -18 -9 -18 -5 0 -13 -9 -16 -20 -7 -23 -32 -50 -46 -50 -5 0 -21
11 -36 25 -16 14 -35 31 -44 38 -13 10 -15 25 -8 97 4 47 8 120 8 162 1 42 5
78 10 80 9 3 15 102 11 178 -2 34 -3 34 -11 -10 -4 -25 -8 -69 -8 -99 -1 -45
-3 -52 -15 -42 -9 8 -16 8 -20 2 -4 -5 -1 -13 5 -16 10 -7 5 -222 -6 -233 -2
-2 -11 3 -20 12 -14 14 -15 25 -8 70 11 59 10 112 -1 137 -4 10 -1 23 7 31 9
9 13 25 10 41 -3 15 0 41 7 58 10 23 10 33 1 42 -6 6 -11 21 -11 34 0 15 -5
21 -14 17 -10 -4 -17 9 -25 46 -6 28 -11 62 -11 76 0 24 -1 24 -22 10 -26 -19
-49 -5 -41 24 3 11 -1 27 -8 36 -7 9 -12 30 -10 47 1 16 -3 40 -9 52 -10 19
-9 27 6 50 10 15 20 23 22 16 2 -7 20 0 45 19 28 21 52 30 78 30 21 0 40 4 44
9 7 12 -78 26 -102 17 -25 -10 -103 33 -125 69 -11 20 -14 31 -7 34 6 2 14 -1
18 -6 3 -5 47 -22 96 -38 50 -16 100 -35 113 -43 14 -9 35 -12 58 -9 38 6 57
-14 35 -36 -16 -16 -15 -70 2 -64 6 2 11 12 9 21 -2 9 6 28 17 43 12 14 21 34
21 44 0 10 10 29 23 42 12 13 27 32 34 43 12 18 13 18 26 2 15 -19 37 -24 37
-10 0 20 37 47 68 50 18 1 48 14 66 29 19 14 48 28 67 30 19 2 46 15 62 30 19
19 30 24 35 16 5 -8 13 -9 22 -3 8 6 43 10 78 10 41 0 62 4 62 12 0 6 -29 39
-65 72 -63 58 -76 80 -55 88 5 2 -2 26 -16 55 -25 51 -26 52 -7 77 10 14 21
26 26 26 13 0 7 -23 -10 -35 -11 -8 -12 -14 -5 -19 6 -4 21 3 33 15 18 18 32
22 75 20 35 -1 55 2 61 12 4 7 29 28 56 47 26 18 47 35 47 37 0 8 -44 -10 -58
-23 -7 -8 -18 -14 -24 -14 -5 0 -21 -9 -35 -20 -43 -33 -63 -24 -23 11 22 19
34 37 32 49 -4 26 14 26 28 0 10 -18 13 -16 55 26 43 42 71 51 58 19 -3 -10 2
-15 16 -15 25 0 27 9 4 25 -15 12 -14 15 13 38 16 15 32 27 37 27 14 0 7 -23
-10 -36 -10 -7 -15 -15 -12 -18 3 -4 21 7 40 24 19 16 37 30 42 30 10 0 9 40
-1 40 -4 0 -14 -6 -21 -12 -11 -11 -13 -10 -9 2 2 8 13 19 24 24 30 14 184
235 184 264 0 6 7 12 15 16 8 3 15 15 15 26 0 25 18 26 44 1z m321 -121 c4 7
17 1 32 -15 l26 -25 -35 -33 c-19 -18 -39 -41 -45 -51 -14 -25 -43 -30 -43 -8
0 10 -3 28 -6 42 -6 21 -4 23 7 13 7 -7 19 -13 26 -13 17 0 7 50 -13 66 -20
16 3 36 27 24 12 -7 20 -6 24 0z m-1630 -55 c6 -11 18 -31 27 -45 24 -36 33
-97 18 -115 -9 -11 -16 -12 -25 -5 -10 8 -20 5 -37 -12 -98 -93 -138 -127
-138 -116 0 41 21 182 28 192 4 6 14 36 21 66 8 30 15 58 17 61 8 14 79 -7 89
-26z m1805 -25 c0 -5 -7 -10 -15 -10 -8 0 -15 5 -15 10 0 6 7 10 15 10 8 0 15
-4 15 -10z m-123 -42 c-3 -8 -6 -5 -6 6 -1 11 2 17 5 13 3 -3 4 -12 1 -19z
m253 -18 c0 -5 -4 -10 -10 -10 -5 0 -10 5 -10 10 0 6 5 10 10 10 6 0 10 -4 10
-10z m-945 -20 c3 -5 1 -10 -4 -10 -6 0 -11 5 -11 10 0 6 2 10 4 10 3 0 8 -4
11 -10z m660 0 c3 -5 1 -10 -4 -10 -6 0 -11 5 -11 10 0 6 2 10 4 10 3 0 8 -4
11 -10z m140 0 c3 -5 1 -10 -4 -10 -6 0 -11 5 -11 10 0 6 2 10 4 10 3 0 8 -4
11 -10z m-209 -14 c3 -8 14 -16 25 -19 16 -4 19 -11 13 -34 -4 -15 -7 -29 -8
-30 -2 -2 -80 -5 -91 -3 -5 1 8 8 30 14 28 9 40 18 40 32 0 10 -7 19 -15 19
-8 0 -16 8 -18 18 -4 20 16 23 24 3z m178 -40 c-3 -9 -10 -16 -15 -16 -6 0 -5
9 1 21 13 24 24 20 14 -5z m-794 -5 c0 -5 -7 -14 -15 -21 -8 -7 -15 -19 -15
-26 0 -17 -16 -18 -25 -3 -4 6 3 21 16 35 23 25 39 31 39 15z m705 -1 c4 -7
13 -6 26 1 24 13 32 8 23 -14 -3 -9 -15 -17 -27 -19 -19 -3 -22 -9 -22 -56 0
-32 -4 -52 -11 -52 -16 0 -25 66 -13 97 5 15 8 32 5 40 -6 15 10 18 19 3z
m185 -4 c0 -15 -18 -31 -26 -23 -7 7 7 37 17 37 5 0 9 -6 9 -14z m125 -16 c-3
-5 -10 -10 -16 -10 -5 0 -9 5 -9 10 0 6 7 10 16 10 8 0 12 -4 9 -10z m-222
-33 c-4 -6 -6 -24 -5 -40 2 -20 -2 -27 -10 -25 -15 5 -18 70 -4 80 14 9 28 -1
19 -15z m137 3 c0 -5 -6 -10 -14 -10 -8 0 -18 5 -21 10 -3 6 3 10 14 10 12 0
21 -4 21 -10z m45 -10 c-7 -21 0 -24 43 -20 12 1 22 -1 22 -4 0 -10 -24 -48
-40 -65 -8 -9 -24 -28 -35 -44 -18 -24 -36 -30 -165 -57 -142 -30 -260 -39
-260 -21 0 6 5 13 10 16 8 5 7 11 -1 21 -7 9 -8 14 -1 14 6 0 13 -4 17 -10 17
-28 46 25 49 94 1 20 26 36 26 16 0 -6 5 -8 10 -5 6 3 10 -3 10 -14 0 -10 -6
-21 -12 -24 -9 -3 -8 -9 5 -19 18 -13 18 -14 -2 -32 -21 -19 -28 -46 -13 -46
4 0 39 9 77 20 38 11 86 20 106 20 20 0 42 7 49 15 11 13 8 15 -14 15 -21 0
-26 5 -26 25 0 14 -6 28 -13 31 -15 5 -19 64 -5 64 4 0 8 -11 8 -24 0 -31 65
-100 86 -92 9 3 20 6 25 6 5 0 7 11 3 24 -4 16 0 34 10 48 9 12 16 33 16 45 0
13 5 23 11 23 6 0 8 -9 4 -20z m-1225 1 c0 -12 -28 -22 -34 -12 -3 5 -3 11 1
15 9 9 33 7 33 -3z m905 -21 c-3 -5 -11 -10 -16 -10 -6 0 -7 5 -4 10 3 6 11
10 16 10 6 0 7 -4 4 -10z m82 -27 c-3 -3 -11 -2 -17 2 -8 5 -7 11 2 22 12 15
13 14 16 -1 2 -10 1 -20 -1 -23z m-1207 -8 c20 -24 6 -28 -15 -5 -10 11 -13
20 -8 20 6 0 16 -7 23 -15z m1365 -25 c3 -6 -1 -7 -9 -4 -18 7 -21 14 -7 14 6
0 13 -4 16 -10z m-2345 -14 c0 -8 -4 -18 -10 -21 -5 -3 -10 -14 -10 -23 0 -9
-25 -46 -55 -82 -30 -35 -55 -68 -55 -72 0 -4 -7 -8 -15 -8 -19 0 -19 32 1 89
24 69 32 79 82 106 56 28 62 30 62 11z m2243 -3 c17 -10 5 -21 -28 -25 -39 -4
-62 11 -43 30 10 10 48 7 71 -5z m-93 -42 c0 -6 -4 -13 -10 -16 -5 -3 -10 1
-10 9 0 9 5 16 10 16 6 0 10 -4 10 -9z m-230 -26 c0 -8 11 -22 24 -30 29 -19
41 -46 25 -56 -8 -4 -4 -9 10 -14 11 -3 26 -15 31 -26 12 -22 10 -22 -23 -10
-21 8 -26 6 -30 -11 -3 -12 -10 -17 -17 -13 -6 4 -9 17 -6 29 4 17 -1 24 -25
35 -26 11 -30 18 -26 39 3 17 -1 31 -11 39 -15 11 -15 12 6 13 12 0 22 5 22
10 0 6 5 10 10 10 6 0 10 -7 10 -15z m-60 -50 c0 -8 -5 -17 -10 -20 -6 -4 0
-15 15 -27 30 -23 32 -38 6 -38 -11 0 -21 -6 -24 -12 -4 -10 -7 -10 -17 -1
-10 9 -10 15 -2 26 13 15 6 27 -15 27 -8 0 -13 -12 -13 -34 0 -29 -3 -33 -22
-31 -13 1 -31 3 -40 4 -29 2 -21 18 12 25 18 3 30 12 30 21 0 9 11 27 25 41
14 14 25 29 25 34 0 5 7 7 15 4 8 -4 15 -12 15 -19z m515 -15 c3 -5 -1 -10
-10 -10 -9 0 -13 5 -10 10 3 6 8 10 10 10 2 0 7 -4 10 -10z m-125 -40 c0 -5
-7 -10 -15 -10 -8 0 -15 5 -15 10 0 6 7 10 15 10 8 0 15 -4 15 -10z m40 -11
c0 -6 -4 -7 -10 -4 -5 3 -10 11 -10 16 0 6 5 7 10 4 6 -3 10 -11 10 -16z
m-135 2 c-16 -15 -88 -18 -93 -3 -2 8 12 12 49 12 32 0 49 -4 44 -9z m-252
-65 c3 -8 0 -17 -8 -20 -14 -5 -28 17 -18 28 10 10 21 7 26 -8z m107 4 c0 -5
-9 -10 -21 -10 -11 0 -17 5 -14 10 3 6 13 10 21 10 8 0 14 -4 14 -10z m-2202
-7 c-10 -2 -26 -2 -35 0 -10 3 -2 5 17 5 19 0 27 -2 18 -5z m1979 -20 c4 -12
-35 -38 -44 -30 -2 3 2 15 9 26 13 22 29 23 35 4z m83 -27 c0 -8 -7 -16 -15
-20 -15 -5 -21 14 -8 27 11 12 23 8 23 -7z m-50 -15 c0 -11 -39 -25 -47 -18
-3 3 -2 10 2 16 8 13 45 15 45 2z m-60 -26 c0 -8 -4 -15 -10 -15 -5 0 -10 7
-10 15 0 8 5 15 10 15 6 0 10 -7 10 -15z m-115 -35 c-3 -5 -11 -10 -16 -10 -6
0 -7 5 -4 10 3 6 11 10 16 10 6 0 7 -4 4 -10z m172 -10 c-1 -12 -5 -16 -10
-11 -5 5 -6 14 -3 20 11 16 15 13 13 -9z m373 2 c0 -5 -22 -21 -48 -35 -26
-14 -56 -35 -67 -47 -10 -11 -26 -20 -37 -20 -14 0 -9 8 19 34 64 57 133 92
133 68z m-184 -39 c-11 -11 -17 4 -9 23 7 18 8 18 11 1 2 -10 1 -21 -2 -24z
m211 -5 c-3 -8 -6 -5 -6 6 -1 11 2 17 5 13 3 -3 4 -12 1 -19z m-257 -9 c0 -4
-7 -6 -15 -3 -8 4 -15 10 -15 15 0 4 7 6 15 3 8 -4 15 -10 15 -15z m-345 -9
c-4 -6 -1 -18 6 -26 10 -12 9 -18 -4 -32 -16 -15 -17 -15 -19 3 -2 35 -3 40
-11 53 -6 8 -1 12 13 12 12 0 18 -4 15 -10z m65 -7 c0 -5 -7 -16 -14 -26 -13
-16 -14 -16 -20 -1 -4 10 -1 21 6 26 16 10 28 10 28 1z m338 -66 c3 -12 -3
-17 -22 -17 -16 0 -26 -6 -28 -18 -2 -11 -66 -85 -143 -166 -77 -81 -166 -184
-198 -229 -66 -92 -96 -127 -110 -127 -5 0 6 19 25 43 19 23 40 51 46 62 6 11
47 63 91 115 44 52 81 98 81 101 0 4 -9 9 -20 12 -32 8 -23 24 10 19 17 -2 30
0 30 5 0 5 9 19 20 31 12 12 16 23 10 27 -15 9 -2 25 15 18 18 -6 21 22 4 33
-8 4 -7 9 2 15 7 4 18 4 24 0 16 -13 87 31 110 66 21 34 48 39 53 10z m-318
-4 c-1 -10 -72 -44 -79 -38 -8 8 41 45 61 45 10 0 18 -3 18 -7z m440 -32 c-5
-11 -15 -23 -21 -27 -6 -3 -3 5 6 20 20 30 30 35 15 7z m-586 -41 c-14 -13
-67 -16 -71 -5 -2 6 15 11 38 12 24 1 38 -2 33 -7z m206 6 c0 -2 -7 -6 -15
-10 -8 -3 -15 -1 -15 4 0 6 7 10 15 10 8 0 15 -2 15 -4z m319 -23 c-32 -42
-174 -171 -216 -196 -23 -14 14 39 40 56 12 9 58 47 102 86 82 73 97 84 74 54z
m-466 -18 c-3 -8 -9 -15 -14 -15 -10 0 -12 24 -3 33 11 11 24 -3 17 -18z
m-113 -99 c0 -3 -4 -8 -10 -11 -5 -3 -10 -1 -10 4 0 6 5 11 10 11 6 0 10 -2
10 -4z m-180 -65 c0 -5 -9 -11 -20 -14 -20 -5 -26 3 -13 16 9 10 33 8 33 -2z
m631 -14 c-10 -9 -11 -8 -5 6 3 10 9 15 12 12 3 -3 0 -11 -7 -18z m-711 -37
c0 -40 -3 -50 -16 -50 -14 0 -16 7 -11 44 5 31 3 46 -6 49 -7 3 -2 6 11 6 20
1 22 -4 22 -49z m380 31 c0 -5 -7 -12 -16 -15 -14 -5 -15 -4 -4 9 14 17 20 19
20 6z m-306 -20 c3 -5 -1 -11 -9 -14 -9 -4 -12 -1 -8 9 6 16 10 17 17 5z m534
-78 c2 -7 -3 -13 -12 -13 -9 0 -16 6 -16 12 0 7 -34 -21 -75 -62 -41 -41 -78
-71 -81 -67 -4 4 24 39 63 78 53 53 77 70 94 67 12 -2 24 -9 27 -15z m-545
-47 c4 -9 -3 -13 -24 -12 -35 1 -36 4 -6 16 12 5 23 9 23 9 1 1 4 -5 7 -13z
m217 0 c0 -3 -4 -8 -10 -11 -5 -3 -10 -1 -10 4 0 6 5 11 10 11 6 0 10 -2 10
-4z m-1163 -73 c-3 -10 -5 -4 -5 12 0 17 2 24 5 18 2 -7 2 -21 0 -30z m61 -40
c10 -7 12 -13 7 -13 -19 0 -35 23 -34 50 l2 25 4 -25 c3 -13 12 -30 21 -37z
m1053 4 c-8 -8 -11 -5 -11 9 0 27 14 41 18 19 2 -9 -1 -22 -7 -28z m-341 12
c0 -6 -4 -7 -10 -4 -5 3 -10 11 -10 16 0 6 5 7 10 4 6 -3 10 -11 10 -16z m613
-66 c3 -5 -6 -9 -19 -9 -13 -1 -21 2 -18 7 6 11 31 12 37 2z m-99 -29 c9 -24
2 -26 -12 -4 -7 11 -8 20 -3 20 5 0 12 -7 15 -16z m-6588 -36 c11 -13 29 -36
39 -53 10 -16 33 -48 52 -70 61 -74 135 -177 130 -181 -2 -3 -23 11 -47 31
-23 19 -48 35 -56 35 -8 0 -14 5 -14 11 0 15 -81 128 -114 158 -18 17 -26 35
-26 58 0 39 9 41 36 11z m6374 -18 c0 -5 -5 -10 -11 -10 -5 0 -7 5 -4 10 3 6
8 10 11 10 2 0 4 -4 4 -10z m28 -140 c-10 -29 -25 -46 -34 -38 -6 7 26 68 36
68 5 0 4 -14 -2 -30z m-633 -70 c-3 -5 -11 -10 -16 -10 -6 0 -7 5 -4 10 3 6
11 10 16 10 6 0 7 -4 4 -10z m375 -72 c0 -18 -2 -20 -9 -8 -6 8 -7 18 -5 22 9
14 14 9 14 -14z m465 -97 c3 -5 1 -12 -5 -16 -5 -3 -10 1 -10 9 0 18 6 21 15
7z m-875 -61 c0 -5 -2 -10 -4 -10 -3 0 -8 5 -11 10 -3 6 -1 10 4 10 6 0 11 -4
11 -10z m-250 -29 c12 -24 13 -41 2 -41 -8 0 -32 43 -32 55 0 13 21 3 30 -14z
m-203 -37 c-3 -3 -12 -4 -19 -1 -8 3 -5 6 6 6 11 1 17 -2 13 -5z m355 -49 c0
-5 -5 -11 -11 -13 -6 -2 -11 4 -11 13 0 9 5 15 11 13 6 -2 11 -8 11 -13z
m-1645 -75 c-2 -44 -19 -53 -37 -20 -9 16 -8 22 5 26 8 3 15 12 15 20 0 8 4
14 9 14 5 0 8 -18 8 -40z m350 -76 c-9 -9 -28 6 -21 18 4 6 10 6 17 -1 6 -6 8
-13 4 -17z m-367 -74 c0 -5 -4 -10 -9 -10 -6 0 -13 5 -16 10 -3 6 1 10 9 10 9
0 16 -4 16 -10z m47 -222 c-3 -8 -6 -5 -6 6 -1 11 2 17 5 13 3 -3 4 -12 1 -19z
m37 -9 c-3 -5 -10 -7 -15 -3 -5 3 -7 10 -3 15 3 5 10 7 15 3 5 -3 7 -10 3 -15z
m-2204 -189 c0 -5 -2 -10 -4 -10 -3 0 -8 5 -11 10 -3 6 -1 10 4 10 6 0 11 -4
11 -10z m2260 0 c0 -5 -5 -10 -11 -10 -5 0 -7 5 -4 10 3 6 8 10 11 10 2 0 4
-4 4 -10z m2985 -20 c-3 -5 -11 -10 -16 -10 -6 0 -7 5 -4 10 3 6 11 10 16 10
6 0 7 -4 4 -10z m-6045 -39 c0 -6 -4 -13 -10 -16 -5 -3 -10 1 -10 9 0 9 5 16
10 16 6 0 10 -4 10 -9z m3645 -31 c7 -12 -32 -12 -60 0 -16 7 -13 9 17 9 20 1
40 -3 43 -9z m-408 -87 c5 -388 4 -381 29 -398 18 -11 24 -25 24 -50 0 -19 5
-35 10 -35 6 0 8 11 4 25 -8 30 2 32 25 4 15 -19 21 -20 59 -9 46 12 48 30 4
31 -15 0 -36 4 -47 8 -13 6 14 11 80 15 55 4 107 10 115 15 25 13 40 53 40
104 0 34 4 47 13 45 16 -6 21 -101 8 -153 -14 -54 -30 -297 -40 -607 l-8 -257
-31 -64 c-18 -35 -32 -70 -32 -76 0 -16 -36 -105 -61 -153 -10 -20 -19 -43
-19 -50 0 -10 -54 -127 -77 -167 -1 -2 -8 1 -15 7 -10 8 -13 -6 -12 -71 1
-107 -3 -115 -35 -69 -51 73 -74 129 -67 163 4 24 2 35 -11 45 -10 7 -14 16
-10 20 4 5 12 2 18 -6 14 -23 30 8 23 45 -3 19 -2 25 4 17 6 -10 13 -8 27 8
25 28 23 166 -4 283 -12 48 -21 101 -21 118 0 17 -4 49 -9 72 -9 40 -23 179
-36 350 -4 48 -2 77 3 73 6 -3 14 0 19 7 15 18 23 57 12 57 -6 0 -5 9 1 21 16
29 1 39 -17 12 -9 -13 -24 -23 -34 -23 -15 0 -18 6 -14 28 2 15 7 60 10 100 3
41 9 81 14 90 5 10 12 97 15 196 5 164 18 256 36 256 4 0 7 -12 7 -27z m-3069
-3 c13 0 12 -3 -4 -22 -21 -25 -33 -47 -59 -118 -37 -100 -115 -194 -163 -195
-21 0 -40 15 -90 73 -35 39 -68 72 -73 72 -12 0 -12 45 0 68 5 9 12 24 16 32
8 21 29 55 43 73 19 23 88 3 135 -39 44 -40 60 -39 28 2 -32 40 -26 44 32 23
58 -21 77 -19 77 9 0 24 10 34 28 27 7 -3 21 -5 30 -5z m3222 -166 c0 -75 3
-96 15 -100 9 -4 15 -19 15 -35 0 -32 -23 -43 -81 -37 l-34 3 -3 60 c-3 52 11
194 24 233 3 10 11 8 34 -8 30 -21 30 -22 30 -116z m208 88 c-22 -4 -48 14
-48 34 0 9 10 7 34 -9 27 -18 30 -23 14 -25z m-4238 4 c0 -3 -4 -8 -10 -11 -5
-3 -10 -1 -10 4 0 6 5 11 10 11 6 0 10 -2 10 -4z m4570 -146 c0 -5 -4 -10 -10
-10 -5 0 -10 5 -10 10 0 6 5 10 10 10 6 0 10 -4 10 -10z m-2692 -41 c-2 -6 -8
-10 -13 -10 -5 0 -11 4 -13 10 -2 6 4 11 13 11 9 0 15 -5 13 -11z m429 -55
c-3 -3 -12 -4 -19 -1 -8 3 -5 6 6 6 11 1 17 -2 13 -5z m1775 -16 c-7 -7 -12
-8 -12 -2 0 14 12 26 19 19 2 -3 -1 -11 -7 -17z m-1892 -38 c0 -5 -4 -10 -10
-10 -5 0 -10 5 -10 10 0 6 5 10 10 10 6 0 10 -4 10 -10z m-315 -110 c3 -5 1
-10 -4 -10 -6 0 -11 5 -11 10 0 6 2 10 4 10 3 0 8 -4 11 -10z m740 -10 c3 -5
1 -10 -4 -10 -6 0 -11 5 -11 10 0 6 2 10 4 10 3 0 8 -4 11 -10z m-662 -7 c-13
-2 -33 -2 -45 0 -13 2 -3 4 22 4 25 0 35 -2 23 -4z m-113 -23 c0 -5 -4 -10
-10 -10 -5 0 -10 5 -10 10 0 6 5 10 10 10 6 0 10 -4 10 -10z m857 -6 c8 -21
-13 -42 -28 -27 -13 13 -5 43 11 43 6 0 13 -7 17 -16z m-87 -39 c5 -14 14 -25
19 -25 6 0 8 -7 5 -15 -4 -10 0 -15 15 -15 24 0 28 -15 6 -24 -8 -3 -21 1 -29
9 -20 20 -26 19 -23 -4 1 -11 -2 -20 -8 -20 -5 -1 -11 26 -12 59 -2 63 10 79
27 35z m733 -5 c23 -28 22 -30 -18 -30 -19 0 -35 5 -35 10 0 6 5 10 10 10 6 0
10 7 10 15 0 21 12 19 33 -5z m-599 -16 c3 -8 2 -12 -4 -9 -6 3 -10 10 -10 16
0 14 7 11 14 -7z m191 -4 c3 -5 -3 -10 -14 -10 -12 0 -21 5 -21 10 0 6 6 10
14 10 8 0 18 -4 21 -10z m85 -27 c-1 -24 -2 -25 -11 -10 -5 9 -19 17 -29 17
-11 0 -20 5 -20 10 0 6 14 10 30 10 26 0 30 -4 30 -27z m411 -35 c-6 -17 -11
-41 -11 -53 0 -21 -25 -53 -34 -44 -9 9 18 126 33 143 14 16 16 17 19 2 2 -9
-1 -31 -7 -48z m-641 22 c0 -5 -2 -10 -4 -10 -3 0 -8 5 -11 10 -3 6 -1 10 4
10 6 0 11 -4 11 -10z m366 -31 c0 -36 -2 -39 -13 -23 -7 10 -13 23 -13 30 0 7
-8 18 -17 23 -15 9 -13 10 12 11 28 0 30 -2 31 -41z m-402 -33 c-3 -9 -12 -16
-20 -16 -18 0 -18 5 2 25 19 19 27 15 18 -9z m536 -42 c0 -8 -4 -14 -10 -14
-5 0 -10 9 -10 21 0 11 5 17 10 14 6 -3 10 -13 10 -21z m40 11 c7 -8 8 -15 2
-15 -5 0 -15 7 -22 15 -7 8 -8 15 -2 15 5 0 15 -7 22 -15z m-243 -67 c-3 -7
-5 -2 -5 12 0 14 2 19 5 13 2 -7 2 -19 0 -25z m-527 2 c0 -5 -9 -10 -21 -10
-11 0 -17 5 -14 10 3 6 13 10 21 10 8 0 14 -4 14 -10z m794 -11 c24 20 31 -8
11 -45 -8 -16 -15 -40 -15 -54 0 -14 -5 -32 -11 -40 -7 -11 -8 4 -3 50 3 36 3
62 -1 58 -5 -4 -14 0 -21 10 -19 25 -17 34 5 20 15 -9 23 -9 35 1z m-243 -62
c-10 -9 -11 -8 -5 6 3 10 9 15 12 12 3 -3 0 -11 -7 -18z m139 -103 c0 -8 -4
-12 -10 -9 -5 3 -10 10 -10 16 0 5 5 9 10 9 6 0 10 -7 10 -16z m20 -40 c0 -8
-5 -12 -10 -9 -6 4 -8 11 -5 16 9 14 15 11 15 -7z m14 -59 c-4 -8 -10 -12 -15
-9 -11 6 -2 24 11 24 5 0 7 -7 4 -15z m-104 -45 c0 -5 -7 -10 -15 -10 -8 0
-15 5 -15 10 0 6 7 10 15 10 8 0 15 -4 15 -10z m48 -19 c3 -8 -1 -12 -9 -9 -7
2 -15 10 -17 17 -3 8 1 12 9 9 7 -2 15 -10 17 -17z m47 -40 c10 -17 -12 -21
-25 -6 -10 12 -10 15 3 15 9 0 18 -4 22 -9z m-65 -122 c0 -5 -4 -9 -10 -9 -5
0 -10 7 -10 16 0 8 5 12 10 9 6 -3 10 -10 10 -16z m0 -29 c0 -5 -2 -10 -4 -10
-3 0 -8 5 -11 10 -3 6 -1 10 4 10 6 0 11 -4 11 -10z m-34 -108 c-12 -11 -18 7
-10 30 l8 23 4 -23 c2 -13 1 -26 -2 -30z m-42 -97 c-4 -8 -8 -15 -10 -15 -2 0
-4 7 -4 15 0 8 4 15 10 15 5 0 7 -7 4 -15z m742 -487 c42 6 48 -19 45 -179 -1
-83 -6 -162 -12 -176 -9 -24 -12 -20 -55 68 -56 115 -77 237 -50 294 9 18 16
39 16 47 1 7 9 -3 18 -22 13 -26 23 -34 38 -32z m-36 -468 c0 -5 11 -26 25
-46 28 -41 30 -60 14 -151 -13 -71 -33 -83 -64 -36 -16 24 -19 25 -30 10 -7
-9 -15 -14 -18 -11 -9 10 4 34 19 34 10 0 14 14 14 51 0 35 6 60 21 80 13 19
16 29 8 29 -21 0 -49 -32 -49 -57 0 -21 -22 -77 -49 -123 -5 -8 -14 -28 -20
-43 -14 -36 -31 -26 -31 19 0 26 10 48 34 77 18 23 37 56 40 73 9 43 86 127
86 94z m22 -361 c4 -41 7 -152 8 -247 0 -135 -3 -179 -15 -202 -18 -35 -46
-52 -83 -49 -42 3 -62 0 -62 -10 0 -6 14 -11 32 -13 26 -2 34 -10 46 -38 l14
-35 -24 22 c-12 12 -39 23 -58 25 -25 2 -38 10 -45 26 -8 18 -18 22 -58 22
-27 0 -57 -5 -69 -11 -19 -10 -20 -9 -13 23 4 18 13 52 21 76 8 23 14 50 14
58 0 29 32 158 57 231 32 90 56 114 124 121 53 5 70 21 49 47 -7 8 -10 16 -6
16 3 1 10 2 15 3 5 0 13 4 17 9 18 18 29 -4 36 -74z"/>
<path d="M6101 17381 c-10 -6 -10 -10 -1 -16 13 -8 24 -1 19 14 -3 6 -10 7
-18 2z"/>
<path d="M6251 17305 c-25 -8 -53 -13 -62 -12 -10 1 -17 -2 -16 -8 4 -23 147
2 147 26 0 12 -16 10 -69 -6z"/>
<path d="M5987 17150 c-3 -13 0 -20 9 -20 15 0 19 26 5 34 -5 3 -11 -3 -14
-14z"/>
<path d="M6030 17045 c0 -8 9 -15 20 -15 13 0 18 5 14 15 -4 8 -12 15 -20 15
-8 0 -14 -7 -14 -15z"/>
<path d="M5992 17041 c-10 -6 -10 -10 2 -20 10 -9 16 -9 21 -1 10 16 -7 31
-23 21z"/>
<path d="M7249 15058 c-1 -2 -3 -13 -4 -25 -2 -16 3 -23 15 -23 19 0 34 26 24
41 -5 8 -32 13 -35 7z"/>
<path d="M7283 14973 c9 -2 23 -2 30 0 6 3 -1 5 -18 5 -16 0 -22 -2 -12 -5z"/>
<path d="M7445 14930 c-21 -22 -24 -30 -13 -30 15 0 54 47 46 56 -3 2 -17 -10
-33 -26z"/>
<path d="M7218 14833 c6 -2 18 -2 25 0 6 3 1 5 -13 5 -14 0 -19 -2 -12 -5z"/>
<path d="M7127 13616 c-7 -18 1 -26 18 -19 8 2 11 11 8 19 -7 18 -19 18 -26 0z"/>
<path d="M7372 13608 c3 -7 12 -14 21 -16 12 -2 15 1 11 12 -7 19 -38 22 -32
4z"/>
<path d="M7325 13550 c-3 -5 -1 -10 4 -10 6 0 11 5 11 10 0 6 -2 10 -4 10 -3
0 -8 -4 -11 -10z"/>
<path d="M7335 13500 c-8 -13 4 -32 16 -25 12 8 12 35 0 35 -6 0 -13 -4 -16
-10z"/>
<path d="M7400 13466 c-8 -10 -6 -15 6 -20 17 -7 34 0 34 14 0 15 -28 19 -40
6z"/>
<path d="M6613 13323 c9 -2 23 -2 30 0 6 3 -1 5 -18 5 -16 0 -22 -2 -12 -5z"/>
<path d="M7030 13175 c0 -8 -9 -20 -20 -27 -27 -17 -25 -25 8 -26 40 0 52 13
38 43 -12 28 -26 33 -26 10z"/>
<path d="M6881 13058 c-32 -30 -45 -37 -55 -29 -10 8 -17 7 -26 -4 -17 -20 -5
-32 15 -15 9 7 15 8 15 2 0 -13 53 12 70 33 7 8 18 15 25 15 7 0 18 6 24 14 9
11 7 15 -7 18 -12 4 -33 -9 -61 -34z"/>
<path d="M6760 12990 c0 -5 5 -10 10 -10 6 0 10 5 10 10 0 6 -4 10 -10 10 -5
0 -10 -4 -10 -10z"/>
<path d="M6814 12974 c3 -7 1 -16 -4 -19 -13 -8 -13 -25 0 -25 6 0 10 7 10 16
0 12 6 15 25 10 15 -4 25 -2 25 4 0 7 8 9 20 5 14 -4 20 -2 20 8 0 10 -14 14
-51 14 -39 1 -49 -2 -45 -13z"/>
<path d="M6740 12925 c0 -8 2 -15 4 -15 2 0 6 7 10 15 3 8 1 15 -4 15 -6 0
-10 -7 -10 -15z"/>
<path d="M6720 12867 c-7 -17 -15 -36 -18 -42 -2 -5 8 2 23 16 20 20 25 31 18
43 -7 13 -11 10 -23 -17z"/>
<path d="M5810 12665 c0 -8 5 -15 10 -15 6 0 10 7 10 15 0 8 -4 15 -10 15 -5
0 -10 -7 -10 -15z"/>
<path d="M5901 12654 c0 -11 3 -14 6 -6 3 7 2 16 -1 19 -3 4 -6 -2 -5 -13z"/>
<path d="M5787 12600 c-3 -11 -1 -23 4 -26 5 -3 9 6 9 20 0 31 -6 34 -13 6z"/>
<path d="M5998 12571 c-12 -52 -9 -222 3 -192 5 14 8 70 7 125 -2 74 -5 92
-10 67z"/>
<path d="M6520 12584 c0 -8 5 -12 10 -9 6 3 10 10 10 16 0 5 -4 9 -10 9 -5 0
-10 -7 -10 -16z"/>
<path d="M7530 13760 c0 -23 10 -26 28 -8 18 18 15 28 -8 28 -13 0 -20 -7 -20
-20z"/>
<path d="M5860 13729 c0 -5 5 -7 10 -4 6 3 10 8 10 11 0 2 -4 4 -10 4 -5 0
-10 -5 -10 -11z"/>
<path d="M7350 13285 c0 -8 5 -15 10 -15 6 0 10 7 10 15 0 8 -4 15 -10 15 -5
0 -10 -7 -10 -15z"/>
<path d="M4930 10350 c0 -5 -6 -10 -14 -10 -17 0 -31 -18 -22 -27 3 -3 12 0
21 7 16 14 18 10 15 -36 -1 -20 4 -33 14 -37 13 -5 16 -24 16 -95 0 -84 1 -89
25 -102 30 -16 46 -5 20 14 -22 16 -11 39 16 31 14 -5 19 -1 19 14 0 14 -5 19
-15 15 -22 -9 -48 4 -39 18 12 19 4 99 -13 131 -8 16 -12 35 -9 43 3 8 3 21 0
29 -7 17 -34 21 -34 5z"/>
<path d="M5016 10021 c-3 -5 1 -14 8 -20 12 -10 13 -8 9 8 -6 23 -9 25 -17 12z"/>
<path d="M4831 9158 c0 -7 4 -22 9 -33 7 -17 9 -15 9 13 1 17 -3 32 -9 32 -5
0 -10 -6 -9 -12z"/>
<path d="M1485 10550 c3 -5 10 -10 16 -10 5 0 9 5 9 10 0 6 -7 10 -16 10 -8 0
-12 -4 -9 -10z"/>
<path d="M4685 7541 c-3 -5 -1 -12 5 -16 12 -7 30 2 30 16 0 12 -27 12 -35 0z"/>
<path d="M5235 16030 c-3 -5 -1 -10 4 -10 6 0 11 5 11 10 0 6 -2 10 -4 10 -3
0 -8 -4 -11 -10z"/>
<path d="M6717 15855 c-18 -25 -18 -25 8 -25 20 0 25 5 25 25 0 31 -10 31 -33
0z"/>
<path d="M6675 15769 c-4 -6 0 -18 9 -27 15 -15 16 -15 16 5 0 25 -15 38 -25
22z"/>
<path d="M6730 15700 c0 -5 5 -10 10 -10 6 0 10 5 10 10 0 6 -4 10 -10 10 -5
0 -10 -4 -10 -10z"/>
<path d="M5490 15590 c0 -5 5 -10 10 -10 6 0 10 5 10 10 0 6 -4 10 -10 10 -5
0 -10 -4 -10 -10z"/>
<path d="M4744 15569 c-3 -6 -3 -43 0 -82 4 -40 9 -94 11 -120 5 -61 21 -110
51 -155 13 -19 24 -43 24 -52 0 -14 12 -19 68 -24 37 -3 75 -6 85 -7 10 0 30
-4 43 -10 14 -5 23 -5 20 0 -3 5 4 12 17 16 18 6 15 9 -23 15 -25 5 -69 9 -98
9 -33 1 -51 5 -47 11 4 6 -7 13 -24 16 -17 4 -31 12 -31 19 0 7 -6 18 -14 24
-8 7 -18 27 -22 44 -3 18 -10 34 -15 37 -5 3 -12 51 -15 107 -6 81 -4 106 9
132 15 30 15 31 -8 31 -13 0 -27 -5 -31 -11z"/>
<path d="M6850 15530 c0 -13 5 -20 13 -17 6 2 12 10 12 17 0 7 -6 15 -12 18
-8 2 -13 -5 -13 -18z"/>
<path d="M4938 15523 c7 -3 16 -2 19 1 4 3 -2 6 -13 5 -11 0 -14 -3 -6 -6z"/>
<path d="M5850 15501 c0 -6 5 -13 10 -16 6 -3 10 1 10 9 0 9 -4 16 -10 16 -5
0 -10 -4 -10 -9z"/>
<path d="M4896 15493 c-3 -4 -6 -13 -6 -22 0 -11 3 -12 11 -4 6 6 26 9 45 6
22 -4 34 -2 34 6 0 6 -6 12 -12 12 -7 1 -25 3 -40 4 -14 2 -29 1 -32 -2z"/>
<path d="M5200 15330 c0 -3 16 -12 36 -18 26 -8 34 -8 31 1 -4 13 -67 29 -67
17z"/>
<path d="M5616 15301 c-4 -7 -5 -15 -2 -18 9 -9 19 4 14 18 -4 11 -6 11 -12 0z"/>
<path d="M5553 15265 c0 -22 2 -30 4 -17 2 12 2 30 0 40 -3 9 -5 -1 -4 -23z"/>
<path d="M5312 15265 c0 -16 2 -22 5 -12 2 9 2 23 0 30 -3 6 -5 -1 -5 -18z"/>
<path d="M5585 15165 c6 -29 39 -65 60 -64 6 0 2 4 -8 10 -9 5 -26 27 -37 47
-20 36 -21 36 -15 7z"/>
<path d="M5128 15143 c17 -2 47 -2 65 0 17 2 3 4 -33 4 -36 0 -50 -2 -32 -4z"/>
<path d="M5650 15036 c0 -3 18 -24 40 -46 36 -36 40 -45 40 -87 -1 -34 -7 -56
-23 -75 -21 -26 -24 -27 -101 -21 -57 4 -74 8 -58 14 47 18 17 26 -85 25 -76
-1 -111 -5 -118 -14 -8 -10 -17 -11 -38 -3 -55 21 -66 4 -17 -26 21 -12 28
-23 24 -35 -9 -30 27 -96 60 -108 16 -5 35 -10 42 -10 22 0 16 20 -8 29 -17 6
7 11 82 17 71 5 97 10 80 15 -21 6 -18 7 16 8 50 1 103 22 128 50 11 12 24 21
30 21 21 1 53 36 58 63 3 15 2 27 -2 27 -4 0 -11 17 -15 37 -9 47 -23 75 -35
68 -9 -6 -49 11 -60 24 -11 13 -40 33 -40 27z"/>
<path d="M5218 15008 c-21 -17 -28 -42 -17 -59 6 -10 9 -8 9 10 0 14 7 33 17
43 19 21 14 24 -9 6z"/>
<path d="M5863 14943 c-32 -12 -8 -24 44 -21 73 4 88 28 16 27 -26 0 -54 -3
-60 -6z"/>
<path d="M5993 14903 c9 -9 20 -13 24 -9 4 4 1 11 -7 16 -25 16 -35 11 -17 -7z"/>
<path d="M5180 14870 c0 -5 5 -10 10 -10 6 0 10 5 10 10 0 6 -4 10 -10 10 -5
0 -10 -4 -10 -10z"/>
<path d="M5249 14867 c-23 -18 -31 -47 -13 -47 9 0 12 5 8 11 -4 7 4 20 17 30
13 10 20 19 14 18 -5 0 -17 -5 -26 -12z"/>
<path d="M6067 14869 c7 -7 15 -10 18 -7 3 3 -2 9 -12 12 -14 6 -15 5 -6 -5z"/>
<path d="M5200 14770 c0 -5 9 -10 19 -10 11 0 28 -3 38 -6 16 -5 16 -4 -1 10
-22 18 -56 21 -56 6z"/>
<path d="M5082 14710 c0 -19 2 -27 5 -17 2 9 2 25 0 35 -3 9 -5 1 -5 -18z"/>
<path d="M5282 14685 c0 -16 2 -22 5 -12 2 9 2 23 0 30 -3 6 -5 -1 -5 -18z"/>
<path d="M5095 14622 c6 -57 24 -114 24 -77 0 11 -6 45 -14 75 l-15 55 5 -53z"/>
<path d="M5276 14641 c-4 -7 -5 -15 -2 -18 9 -9 19 4 14 18 -4 11 -6 11 -12 0z"/>
<path d="M5400 14521 c0 -5 -21 -8 -46 -6 -44 4 -49 1 -94 -42 l-47 -45 9 -57
c14 -85 28 -87 28 -3 0 41 4 72 10 72 6 0 10 -9 10 -19 0 -18 23 -32 60 -36 8
-1 32 -9 53 -19 34 -17 44 -17 95 -6 96 21 123 23 176 12 28 -6 78 -16 111
-22 36 -7 77 -24 103 -41 23 -17 42 -26 42 -21 0 8 -62 107 -76 121 -8 9 -152
30 -206 30 -35 1 -60 6 -65 14 -4 7 -28 19 -52 27 -24 8 -54 22 -66 32 -25 20
-45 23 -45 9z"/>
<path d="M5510 13979 c0 -5 5 -7 10 -4 6 3 10 8 10 11 0 2 -4 4 -10 4 -5 0
-10 -5 -10 -11z"/>
<path d="M5220 13729 c0 -5 5 -7 10 -4 6 3 10 8 10 11 0 2 -4 4 -10 4 -5 0
-10 -5 -10 -11z"/>
<path d="M5260 13700 c0 -5 7 -7 15 -4 8 4 15 8 15 10 0 2 -7 4 -15 4 -8 0
-15 -4 -15 -10z"/>
<path d="M4901 13504 c0 -11 3 -14 6 -6 3 7 2 16 -1 19 -3 4 -6 -2 -5 -13z"/>
<path d="M4792 13489 c2 -6 8 -10 13 -10 5 0 11 4 13 10 2 6 -4 11 -13 11 -9
0 -15 -5 -13 -11z"/>
<path d="M4993 13469 c26 -15 137 -24 137 -12 0 10 -77 23 -130 23 -23 -1 -23
-2 -7 -11z"/>
<path d="M4835 13461 c-6 -11 9 -23 19 -14 9 9 7 23 -3 23 -6 0 -12 -4 -16 -9z"/>
<path d="M4744 13436 c-10 -8 -16 -17 -13 -20 3 -3 14 3 24 14 21 23 17 26
-11 6z"/>
<path d="M4905 13429 c7 -10 55 -18 55 -9 0 4 -13 10 -29 12 -17 2 -28 1 -26
-3z"/>
<path d="M4778 13401 c-26 -15 -38 -41 -20 -41 11 0 57 49 51 53 -2 2 -16 -3
-31 -12z"/>
<path d="M4850 13412 c0 -5 -16 -25 -35 -45 -53 -54 -42 -66 14 -16 27 24 48
48 47 53 -3 13 -26 20 -26 8z"/>
<path d="M4925 13360 c3 -5 10 -10 16 -10 5 0 9 5 9 10 0 6 -7 10 -16 10 -8 0
-12 -4 -9 -10z"/>
<path d="M4726 13335 c4 -8 8 -15 10 -15 2 0 4 7 4 15 0 8 -4 15 -10 15 -5 0
-7 -7 -4 -15z"/>
<path d="M4857 13336 c-3 -8 2 -16 14 -19 13 -4 17 -10 12 -23 -5 -14 -3 -16
11 -11 10 4 22 7 27 7 15 0 2 16 -30 39 -23 17 -30 18 -34 7z"/>
<path d="M4990 13330 c0 -5 7 -10 15 -10 8 0 15 5 15 10 0 6 -7 10 -15 10 -8
0 -15 -4 -15 -10z"/>
<path d="M5080 13319 c0 -5 5 -7 10 -4 6 3 10 8 10 11 0 2 -4 4 -10 4 -5 0
-10 -5 -10 -11z"/>
<path d="M4750 13290 c0 -5 5 -10 10 -10 6 0 10 5 10 10 0 6 -4 10 -10 10 -5
0 -10 -4 -10 -10z"/>
<path d="M4830 13290 c0 -5 5 -10 10 -10 6 0 10 5 10 10 0 6 -4 10 -10 10 -5
0 -10 -4 -10 -10z"/>
<path d="M4936 13282 c-3 -6 15 -12 44 -14 28 -1 50 0 50 5 0 4 -13 7 -29 7
-16 0 -36 3 -44 6 -8 3 -18 1 -21 -4z"/>
<path d="M4722 13244 c-7 -8 -8 -14 -3 -14 10 0 25 19 20 25 -2 1 -10 -3 -17
-11z"/>
<path d="M4822 13219 c2 -6 7 -10 11 -10 4 1 19 1 34 1 33 0 28 5 -15 13 -22
5 -32 3 -30 -4z"/>
<path d="M4492 12970 c0 -14 2 -19 5 -12 2 6 2 18 0 25 -3 6 -5 1 -5 -13z"/>
<path d="M5780 12959 c0 -5 5 -7 10 -4 6 3 10 8 10 11 0 2 -4 4 -10 4 -5 0
-10 -5 -10 -11z"/>
<path d="M4491 12865 c0 -38 -4 -100 -8 -137 -4 -48 -3 -68 6 -68 6 0 11 8 11
18 0 10 7 27 15 38 8 12 12 24 8 27 -3 4 6 11 21 16 14 6 26 17 26 26 0 20
-26 19 -34 -1 -13 -33 -24 -5 -36 91 l-7 60 -2 -70z"/>
<path d="M4535 12830 c3 -5 11 -10 16 -10 6 0 7 5 4 10 -3 6 -11 10 -16 10 -6
0 -7 -4 -4 -10z"/>
<path d="M4580 12734 c0 -8 5 -12 10 -9 6 3 10 10 10 16 0 5 -4 9 -10 9 -5 0
-10 -7 -10 -16z"/>
<path d="M4585 12700 c3 -5 14 -10 23 -11 14 0 13 -2 -3 -8 -13 -5 0 -10 45
-14 35 -4 68 -3 72 1 4 4 -10 9 -32 10 -21 2 -52 9 -67 17 -33 17 -47 19 -38
5z"/>
<path d="M4584 12397 c-3 -8 -27 -28 -53 -46 -35 -22 -54 -43 -65 -72 -9 -23
-15 -44 -12 -46 9 -10 24 7 29 35 4 21 21 39 60 65 55 37 74 61 56 72 -5 4
-12 0 -15 -8z"/>
<path d="M4462 12170 c0 -14 2 -19 5 -12 2 6 2 18 0 25 -3 6 -5 1 -5 -13z"/>
<path d="M4477 12097 c-3 -7 -1 -20 3 -28 7 -11 10 -10 16 4 4 10 2 23 -3 28
-7 7 -12 6 -16 -4z"/>
<path d="M968 11733 c12 -2 32 -2 45 0 12 2 2 4 -23 4 -25 0 -35 -2 -22 -4z"/>
<path d="M4480 11701 c-7 -14 -7 -22 1 -27 12 -7 29 12 29 34 0 19 -18 14 -30
-7z"/>
<path d="M1358 11633 c6 -2 18 -2 25 0 6 3 1 5 -13 5 -14 0 -19 -2 -12 -5z"/>
<path d="M1590 11585 c1 -15 90 -120 125 -146 22 -17 17 -9 -15 26 -25 28 -60
68 -78 90 -17 22 -32 35 -32 30z"/>
<path d="M4605 11560 c3 -5 8 -10 11 -10 2 0 4 5 4 10 0 6 -5 10 -11 10 -5 0
-7 -4 -4 -10z"/>
<path d="M4565 11530 c3 -5 8 -10 11 -10 2 0 4 5 4 10 0 6 -5 10 -11 10 -5 0
-7 -4 -4 -10z"/>
<path d="M4565 11490 c3 -5 8 -10 11 -10 2 0 4 5 4 10 0 6 -5 10 -11 10 -5 0
-7 -4 -4 -10z"/>
<path d="M4586 11451 c-4 -7 -5 -15 -2 -18 9 -9 19 4 14 18 -4 11 -6 11 -12 0z"/>
<path d="M4532 11431 c4 -13 18 -16 19 -4 0 4 -5 9 -11 12 -7 2 -11 -2 -8 -8z"/>
<path d="M4568 11375 c-17 -15 -24 -26 -17 -31 11 -6 59 32 59 48 0 14 -14 8
-42 -17z"/>
<path d="M890 11341 c0 -13 29 -35 37 -28 7 8 -15 37 -28 37 -5 0 -9 -4 -9 -9z"/>
<path d="M970 11325 c0 -8 5 -15 10 -15 6 0 10 7 10 15 0 8 -4 15 -10 15 -5 0
-10 -7 -10 -15z"/>
<path d="M4530 11325 c0 -8 5 -15 10 -15 6 0 10 7 10 15 0 8 -4 15 -10 15 -5
0 -10 -7 -10 -15z"/>
<path d="M3283 10543 c9 -2 25 -2 35 0 9 3 1 5 -18 5 -19 0 -27 -2 -17 -5z"/>
<path d="M3503 10456 c27 -25 54 -46 59 -46 17 0 -13 30 -61 62 l-46 29 48
-45z"/>
<path d="M3635 10380 c27 -12 35 -12 35 0 0 6 -12 10 -27 9 -25 0 -26 -1 -8
-9z"/>
</g>
</svg>
